<?xml version="1.0" encoding="utf-8"?>
<!-- Generator: Adobe Illustrator 16.0.0, SVG Export Plug-In . SVG Version: 6.00 Build 0)  -->
<!DOCTYPE svg PUBLIC "-//W3C//DTD SVG 1.1//EN" "http://www.w3.org/Graphics/SVG/1.1/DTD/svg11.dtd">
<svg version="1.1" id="Layer_1" xmlns="http://www.w3.org/2000/svg" xmlns:xlink="http://www.w3.org/1999/xlink" x="0px" y="0px"
	 width="123.276px" height="106.729px" viewBox="24.662 30.66 123.276 106.729"
	 enable-background="new 24.662 30.66 123.276 106.729" xml:space="preserve">
<g id="Layer_1_2_">
	<rect x="24.662" y="30.66" opacity="0.35" fill="#434241" enable-background="new    " width="123.276" height="106.729"/>
	<g id="Layer_1_1_">
	</g>
</g>
<g id="_x3C_Layer_x3E_">
	<rect x="35.423" y="117.42" fill="#CCCCCC" width="0.353" height="10.337"/>
	<g>
		<g>
			<path fill="#CCCCCC" d="M94.627,52.994h-1.729v-0.282l1.199-1.8h-1.164V50.56h1.658v0.282l-1.199,1.799h1.234V52.994z"/>
			<path fill="#CCCCCC" d="M96.604,52.077c0,0.282-0.071,0.529-0.213,0.706c-0.141,0.176-0.353,0.247-0.635,0.247
				c-0.176,0-0.317-0.035-0.459-0.106c-0.141-0.07-0.246-0.176-0.316-0.317c-0.071-0.141-0.106-0.318-0.106-0.494
				c0-0.282,0.07-0.529,0.212-0.706c0.141-0.176,0.353-0.247,0.635-0.247c0.247,0,0.459,0.071,0.635,0.247
				C96.532,51.583,96.604,51.794,96.604,52.077z M95.297,52.077c0,0.423,0.142,0.635,0.459,0.635c0.318,0,0.459-0.212,0.459-0.635
				s-0.141-0.635-0.459-0.635c-0.176,0-0.282,0.071-0.353,0.177C95.332,51.724,95.297,51.9,95.297,52.077z"/>
			<path fill="#CCCCCC" d="M98.685,52.077c0,0.282-0.071,0.529-0.212,0.706s-0.353,0.247-0.635,0.247
				c-0.177,0-0.318-0.035-0.459-0.106c-0.141-0.07-0.247-0.176-0.317-0.317c-0.071-0.141-0.106-0.318-0.106-0.494
				c0-0.282,0.071-0.529,0.213-0.706c0.141-0.176,0.352-0.247,0.635-0.247c0.246,0,0.459,0.071,0.635,0.247
				C98.578,51.583,98.685,51.794,98.685,52.077z M97.344,52.077c0,0.423,0.141,0.635,0.459,0.635c0.317,0,0.459-0.212,0.459-0.635
				s-0.142-0.635-0.459-0.635c-0.177,0-0.283,0.071-0.354,0.177C97.379,51.724,97.344,51.9,97.344,52.077z"/>
			<path fill="#CCCCCC" d="M99.496,52.042l0.211-0.282l0.564-0.6h0.459l-0.74,0.776l0.775,1.023h-0.458l-0.601-0.812l-0.211,0.177
				v0.635h-0.389v-2.505h0.389v1.235V52.042L99.496,52.042z"/>
			<path fill="#CCCCCC" d="M101.824,53.029c-0.281,0-0.494-0.071-0.67-0.247s-0.247-0.388-0.247-0.67s0.071-0.529,0.212-0.706
				s0.353-0.247,0.6-0.247s0.424,0.071,0.564,0.212s0.212,0.353,0.212,0.6v0.212h-1.2c0,0.176,0.035,0.317,0.142,0.423
				s0.212,0.141,0.388,0.141c0.106,0,0.212,0,0.283-0.035c0.105-0.036,0.176-0.071,0.281-0.106v0.317
				c-0.105,0.035-0.176,0.071-0.281,0.106C102.072,53.029,101.966,53.029,101.824,53.029z M101.754,51.441
				c-0.105,0-0.211,0.035-0.282,0.106c-0.07,0.071-0.106,0.176-0.142,0.353h0.813c0-0.141-0.035-0.247-0.106-0.353
				C101.966,51.441,101.895,51.441,101.754,51.441z"/>
			<path fill="#CCCCCC" d="M103.766,53.029c-0.283,0-0.494-0.071-0.671-0.247s-0.247-0.388-0.247-0.67s0.07-0.529,0.212-0.706
				s0.353-0.247,0.6-0.247s0.423,0.071,0.564,0.212s0.212,0.353,0.212,0.6v0.212h-1.199c0,0.176,0.035,0.317,0.141,0.423
				s0.212,0.141,0.389,0.141c0.105,0,0.211,0,0.281-0.035c0.106-0.036,0.177-0.071,0.283-0.106v0.317
				c-0.106,0.035-0.177,0.071-0.283,0.106C104.012,53.029,103.871,53.029,103.766,53.029z M103.694,51.441
				c-0.105,0-0.212,0.035-0.282,0.106s-0.105,0.176-0.141,0.353h0.811c0-0.141-0.035-0.247-0.105-0.353
				S103.801,51.441,103.694,51.441z"/>
			<path fill="#CCCCCC" d="M105.812,53.029c-0.247,0-0.423-0.071-0.529-0.247h-0.035c0,0.141,0.035,0.247,0.035,0.282v0.741h-0.388
				v-2.611h0.317c0,0.036,0.035,0.106,0.07,0.247h0.035c0.106-0.176,0.317-0.282,0.529-0.282s0.388,0.071,0.529,0.247
				s0.177,0.388,0.177,0.706c0,0.282-0.07,0.529-0.177,0.706C106.234,52.958,106.059,53.029,105.812,53.029z M105.74,51.477
				c-0.141,0-0.281,0.036-0.352,0.142c-0.071,0.105-0.106,0.247-0.106,0.423v0.07c0,0.212,0.035,0.388,0.106,0.494
				c0.07,0.106,0.176,0.141,0.352,0.141c0.142,0,0.248-0.071,0.318-0.177c0.07-0.105,0.105-0.282,0.105-0.458
				c0-0.211-0.035-0.353-0.105-0.458C105.988,51.512,105.882,51.477,105.74,51.477z"/>
			<path fill="#CCCCCC" d="M107.787,53.029c-0.282,0-0.494-0.071-0.67-0.247c-0.177-0.176-0.247-0.388-0.247-0.67
				s0.07-0.529,0.212-0.706c0.141-0.176,0.353-0.247,0.6-0.247c0.246,0,0.424,0.071,0.564,0.212s0.211,0.353,0.211,0.6v0.212h-1.199
				c0,0.176,0.035,0.317,0.142,0.423c0.105,0.106,0.212,0.141,0.388,0.141c0.105,0,0.212,0,0.282-0.035
				c0.071-0.036,0.177-0.071,0.282-0.106v0.317c-0.105,0.035-0.176,0.071-0.282,0.106C108.034,53.029,107.928,53.029,107.787,53.029
				z M107.717,51.441c-0.105,0-0.212,0.035-0.282,0.106c-0.071,0.071-0.106,0.176-0.142,0.353h0.813
				c0-0.141-0.036-0.247-0.106-0.353C107.928,51.441,107.857,51.441,107.717,51.441z"/>
			<path fill="#CCCCCC" d="M109.869,51.159c0.07,0,0.141,0,0.176,0l-0.035,0.353c-0.07,0-0.105-0.036-0.176-0.036
				c-0.142,0-0.283,0.036-0.389,0.142c-0.105,0.105-0.141,0.247-0.141,0.388v0.953h-0.389v-1.799h0.318l0.035,0.317h0.035
				c0.07-0.105,0.141-0.211,0.246-0.247C109.622,51.194,109.729,51.159,109.869,51.159z"/>
		</g>
		<g>
			<path fill="#CCCCCC" d="M38.917,117.49h0.564c0.247,0,0.458,0.035,0.564,0.105s0.176,0.212,0.176,0.354
				c0,0.105-0.035,0.211-0.07,0.281c-0.071,0.07-0.141,0.106-0.247,0.142l0,0c0.141,0.035,0.247,0.07,0.282,0.142
				c0.07,0.07,0.106,0.176,0.106,0.281c0,0.177-0.071,0.318-0.177,0.389c-0.105,0.105-0.282,0.141-0.494,0.141h-0.67L38.917,117.49
				L38.917,117.49z M39.234,118.266h0.282c0.141,0,0.212-0.035,0.282-0.07c0.071-0.035,0.106-0.105,0.106-0.211
				c0-0.106-0.035-0.142-0.106-0.177c-0.07-0.036-0.176-0.071-0.317-0.071h-0.282v0.529H39.234z M39.234,118.514v0.6h0.317
				c0.141,0,0.212-0.035,0.282-0.07c0.071-0.036,0.106-0.142,0.106-0.248c0-0.105-0.035-0.176-0.106-0.211
				c-0.07-0.035-0.176-0.07-0.317-0.07H39.234L39.234,118.514z"/>
			<path fill="#CCCCCC" d="M41.916,118.654c0,0.247-0.071,0.424-0.177,0.529c-0.106,0.141-0.282,0.211-0.494,0.211
				c-0.141,0-0.247-0.035-0.353-0.105s-0.176-0.141-0.247-0.246c-0.07-0.106-0.07-0.248-0.07-0.389c0-0.247,0.07-0.424,0.176-0.529
				c0.106-0.141,0.282-0.212,0.494-0.212c0.211,0,0.353,0.071,0.494,0.212C41.845,118.266,41.916,118.442,41.916,118.654z
				 M40.857,118.654c0,0.317,0.106,0.494,0.353,0.494c0.247,0,0.353-0.177,0.353-0.494s-0.106-0.494-0.353-0.494
				c-0.141,0-0.211,0.035-0.282,0.141C40.892,118.407,40.857,118.514,40.857,118.654z"/>
			<path fill="#CCCCCC" d="M43.503,118.654c0,0.247-0.07,0.424-0.176,0.529c-0.106,0.141-0.282,0.211-0.494,0.211
				c-0.141,0-0.247-0.035-0.353-0.105c-0.106-0.07-0.177-0.141-0.247-0.246c-0.071-0.106-0.071-0.248-0.071-0.389
				c0-0.247,0.071-0.424,0.177-0.529c0.105-0.141,0.282-0.212,0.494-0.212c0.212,0,0.353,0.071,0.494,0.212
				S43.503,118.442,43.503,118.654z M42.48,118.654c0,0.317,0.105,0.494,0.353,0.494s0.353-0.177,0.353-0.494
				s-0.106-0.494-0.353-0.494c-0.141,0-0.211,0.035-0.282,0.141C42.515,118.407,42.48,118.514,42.48,118.654z"/>
			<path fill="#CCCCCC" d="M44.385,119.184c0.07,0,0.141,0,0.211-0.035v0.211c-0.035,0-0.07,0.035-0.141,0.035
				c-0.035,0-0.106,0-0.176,0c-0.282,0-0.423-0.141-0.423-0.458v-0.741h-0.212v-0.141l0.212-0.105l0.106-0.318h0.176v0.318h0.423
				v0.211h-0.423v0.776c0,0.07,0.035,0.142,0.07,0.177C44.279,119.148,44.35,119.184,44.385,119.184z"/>
			<path fill="#CCCCCC" d="M45.867,118.972c0,0.142-0.035,0.247-0.141,0.317c-0.105,0.07-0.247,0.105-0.423,0.105
				c-0.176,0-0.353-0.035-0.458-0.07v-0.246c0.176,0.07,0.317,0.105,0.458,0.105c0.177,0,0.282-0.07,0.282-0.177
				c0-0.035,0-0.07-0.035-0.105c-0.035-0.036-0.07-0.036-0.106-0.071c-0.035-0.035-0.105-0.07-0.211-0.07
				c-0.176-0.07-0.282-0.141-0.318-0.176c-0.07-0.07-0.07-0.142-0.07-0.247c0-0.106,0.035-0.212,0.141-0.282
				s0.247-0.105,0.388-0.105c0.176,0,0.317,0.035,0.458,0.105l-0.106,0.211c-0.141-0.07-0.282-0.105-0.388-0.105
				c-0.177,0-0.247,0.035-0.247,0.141c0,0.036,0.035,0.071,0.07,0.106c0.036,0.035,0.141,0.071,0.282,0.142
				c0.106,0.035,0.212,0.07,0.247,0.141c0.071,0.035,0.106,0.07,0.106,0.141C45.832,118.865,45.867,118.901,45.867,118.972z"/>
			<path fill="#CCCCCC" d="M46.714,119.184c0.07,0,0.141,0,0.211-0.035v0.211c-0.035,0-0.07,0.035-0.141,0.035
				c-0.035,0-0.106,0-0.176,0c-0.282,0-0.423-0.141-0.423-0.458v-0.741h-0.212v-0.141l0.212-0.105l0.106-0.318h0.176v0.318h0.458
				v0.211h-0.423v0.776c0,0.07,0.035,0.142,0.071,0.177C46.608,119.148,46.643,119.184,46.714,119.184z"/>
			<path fill="#CCCCCC" d="M47.949,117.949c0.07,0,0.106,0,0.141,0l-0.035,0.281c-0.036,0-0.071,0-0.142,0
				c-0.105,0-0.211,0.035-0.282,0.106c-0.07,0.07-0.105,0.177-0.105,0.317v0.74h-0.318v-1.41h0.247l0.035,0.246l0,0
				c0.036-0.07,0.106-0.141,0.177-0.211C47.772,117.949,47.843,117.949,47.949,117.949z"/>
			<path fill="#CCCCCC" d="M49.254,119.395l-0.07-0.211l0,0c-0.071,0.07-0.141,0.141-0.212,0.176
				c-0.07,0.035-0.176,0.035-0.282,0.035c-0.141,0-0.247-0.035-0.317-0.105c-0.071-0.07-0.106-0.176-0.106-0.317
				s0.071-0.247,0.176-0.317c0.106-0.07,0.282-0.105,0.494-0.105h0.247v-0.07c0-0.106-0.036-0.178-0.071-0.213
				s-0.106-0.07-0.211-0.07c-0.071,0-0.141,0-0.212,0.035c-0.07,0.035-0.141,0.035-0.176,0.07l-0.106-0.211
				c0.071-0.035,0.176-0.07,0.247-0.105c0.106-0.035,0.176-0.035,0.247-0.035c0.176,0,0.317,0.035,0.423,0.105
				s0.141,0.211,0.141,0.388v0.952H49.254L49.254,119.395z M48.795,119.184c0.106,0,0.211-0.035,0.282-0.105
				c0.07-0.071,0.106-0.142,0.106-0.248v-0.141h-0.177c-0.141,0-0.247,0.035-0.317,0.07c-0.07,0.035-0.106,0.105-0.106,0.212
				c0,0.071,0.036,0.106,0.071,0.142C48.654,119.148,48.725,119.184,48.795,119.184z"/>
			<path fill="#CCCCCC" d="M50.595,119.395c-0.176,0-0.317-0.07-0.423-0.211h-0.035c0,0.105,0.035,0.176,0.035,0.211v0.601h-0.317
				v-2.046h0.247c0,0.035,0.036,0.105,0.036,0.176l0,0c0.105-0.141,0.247-0.212,0.423-0.212c0.176,0,0.317,0.071,0.423,0.177
				s0.141,0.317,0.141,0.529c0,0.246-0.035,0.424-0.141,0.529C50.912,119.359,50.771,119.395,50.595,119.395z M50.524,118.195
				c-0.106,0-0.212,0.035-0.247,0.105c-0.071,0.071-0.071,0.178-0.071,0.354v0.035c0,0.176,0.035,0.282,0.071,0.389
				c0.035,0.105,0.141,0.105,0.282,0.105c0.106,0,0.176-0.035,0.247-0.141c0.07-0.071,0.07-0.213,0.07-0.354
				c0-0.176-0.035-0.282-0.07-0.353C50.736,118.23,50.63,118.195,50.524,118.195z"/>
			<path fill="#CCCCCC" d="M39.869,122.146c0,0.142-0.036,0.248-0.141,0.318c-0.106,0.07-0.247,0.105-0.424,0.105
				c-0.176,0-0.353-0.035-0.458-0.07v-0.247c0.176,0.071,0.317,0.106,0.458,0.106c0.177,0,0.283-0.071,0.283-0.177
				c0-0.036,0-0.071-0.036-0.106c-0.035-0.035-0.07-0.035-0.106-0.07c-0.035-0.035-0.105-0.07-0.211-0.07
				c-0.176-0.07-0.282-0.141-0.317-0.177c-0.071-0.07-0.071-0.141-0.071-0.247c0-0.105,0.035-0.211,0.141-0.281
				c0.106-0.071,0.247-0.106,0.388-0.106c0.176,0,0.317,0.035,0.458,0.106l-0.105,0.211c-0.141-0.07-0.283-0.105-0.388-0.105
				c-0.177,0-0.247,0.035-0.247,0.141c0,0.035,0.035,0.07,0.07,0.105c0.036,0.036,0.141,0.071,0.282,0.142
				c0.106,0.035,0.212,0.071,0.247,0.142c0.071,0.035,0.106,0.07,0.106,0.141C39.833,122.006,39.869,122.076,39.869,122.146z"/>
			<path fill="#CCCCCC" d="M40.786,122.57c-0.211,0-0.388-0.07-0.529-0.176c-0.141-0.142-0.176-0.318-0.176-0.529
				c0-0.247,0.071-0.424,0.176-0.564c0.106-0.142,0.282-0.212,0.494-0.212c0.176,0,0.353,0.07,0.458,0.177
				c0.106,0.105,0.177,0.281,0.177,0.458v0.177h-0.953c0,0.141,0.035,0.246,0.105,0.317c0.071,0.07,0.177,0.106,0.283,0.106
				c0.07,0,0.176,0,0.247-0.036c0.071,0,0.141-0.035,0.247-0.07v0.247c-0.07,0.035-0.141,0.07-0.211,0.07
				C40.998,122.57,40.892,122.57,40.786,122.57z M40.751,121.336c-0.106,0-0.176,0.035-0.247,0.105
				c-0.07,0.07-0.106,0.141-0.106,0.282h0.635c0-0.105-0.035-0.212-0.07-0.282C40.927,121.371,40.857,121.336,40.751,121.336z"/>
			<path fill="#CCCCCC" d="M42.409,121.089c0.071,0,0.106,0,0.141,0l-0.035,0.282c-0.035,0-0.071,0-0.141,0
				c-0.106,0-0.212,0.035-0.282,0.105c-0.071,0.07-0.106,0.177-0.106,0.318v0.74h-0.317v-1.411h0.247l0.07,0.247l0,0
				c0.035-0.07,0.106-0.141,0.176-0.212C42.268,121.124,42.339,121.089,42.409,121.089z"/>
			<path fill="#CCCCCC" d="M43.15,122.535l-0.529-1.411h0.317l0.282,0.812c0.035,0.141,0.071,0.247,0.106,0.353l0,0
				c0-0.07,0.035-0.177,0.106-0.353l0.282-0.812h0.317l-0.529,1.411H43.15z"/>
			<path fill="#CCCCCC" d="M44.879,122.57c-0.211,0-0.388-0.07-0.529-0.176c-0.141-0.106-0.176-0.318-0.176-0.529
				c0-0.247,0.071-0.424,0.176-0.564c0.106-0.142,0.282-0.212,0.494-0.212c0.176,0,0.353,0.07,0.458,0.177
				c0.106,0.105,0.177,0.281,0.177,0.458v0.177h-0.953c0,0.141,0.035,0.246,0.105,0.317c0.071,0.07,0.177,0.106,0.283,0.106
				c0.07,0,0.176,0,0.247-0.036c0.071,0,0.141-0.035,0.247-0.07v0.247c-0.07,0.035-0.141,0.07-0.211,0.07
				C45.056,122.57,44.985,122.57,44.879,122.57z M44.809,121.336c-0.106,0-0.177,0.035-0.247,0.105
				c-0.071,0.07-0.106,0.141-0.106,0.282h0.635c0-0.105-0.035-0.212-0.071-0.282C44.985,121.371,44.914,121.336,44.809,121.336z"/>
			<path fill="#CCCCCC" d="M46.502,121.089c0.071,0,0.106,0,0.141,0l-0.035,0.282c-0.035,0-0.071,0-0.141,0
				c-0.106,0-0.212,0.035-0.282,0.105c-0.071,0.07-0.106,0.177-0.106,0.318v0.74h-0.317v-1.411h0.247l0.036,0.247l0,0
				c0.035-0.07,0.106-0.141,0.176-0.212C46.326,121.124,46.396,121.089,46.502,121.089z"/>
			<path fill="#CCCCCC" d="M47.878,122.146c0,0.142-0.035,0.248-0.141,0.318s-0.247,0.105-0.423,0.105s-0.353-0.035-0.458-0.07
				v-0.247c0.176,0.071,0.317,0.106,0.458,0.106c0.176,0,0.282-0.071,0.282-0.177c0-0.036,0-0.071-0.035-0.106
				s-0.071-0.035-0.106-0.07s-0.106-0.07-0.211-0.07c-0.177-0.07-0.283-0.141-0.318-0.177c-0.035-0.035-0.07-0.141-0.07-0.247
				c0-0.105,0.035-0.211,0.141-0.281c0.105-0.071,0.247-0.106,0.388-0.106c0.176,0,0.317,0.035,0.458,0.106l-0.106,0.211
				c-0.141-0.07-0.282-0.105-0.388-0.105c-0.176,0-0.247,0.035-0.247,0.141c0,0.035,0.036,0.07,0.071,0.105
				c0.035,0.036,0.141,0.071,0.282,0.142c0.106,0.035,0.212,0.071,0.247,0.142c0.07,0.035,0.106,0.07,0.106,0.141
				C47.843,122.006,47.878,122.076,47.878,122.146z"/>
		</g>
		<g>
			<path fill="#CCCCCC" d="M82.031,118.514c0,0.316-0.071,0.529-0.247,0.705c-0.141,0.176-0.353,0.247-0.635,0.247
				c-0.283,0-0.494-0.071-0.67-0.247c-0.141-0.176-0.212-0.424-0.212-0.705c0-0.318,0.071-0.564,0.247-0.706
				c0.141-0.177,0.388-0.247,0.67-0.247s0.494,0.07,0.635,0.247C81.925,117.984,82.031,118.23,82.031,118.514z M80.584,118.514
				c0,0.246,0.036,0.423,0.141,0.529c0.106,0.105,0.247,0.176,0.424,0.176c0.176,0,0.317-0.07,0.423-0.176
				c0.105-0.106,0.141-0.283,0.141-0.529c0-0.248-0.036-0.424-0.141-0.529c-0.106-0.106-0.247-0.177-0.423-0.177
				c-0.177,0-0.318,0.07-0.424,0.177C80.62,118.125,80.584,118.301,80.584,118.514z"/>
			<path fill="#CCCCCC" d="M83.125,119.501c-0.176,0-0.317-0.07-0.423-0.212h-0.035c0,0.105,0.035,0.177,0.035,0.212v0.6h-0.317
				v-2.046h0.247c0,0.035,0.036,0.105,0.036,0.176l0,0c0.105-0.141,0.247-0.211,0.423-0.211c0.176,0,0.317,0.07,0.423,0.176
				c0.106,0.142,0.141,0.318,0.141,0.529c0,0.247-0.035,0.424-0.141,0.529C83.442,119.431,83.301,119.501,83.125,119.501z
				 M83.054,118.266c-0.105,0-0.211,0.035-0.247,0.106c-0.071,0.07-0.071,0.177-0.071,0.353v0.035c0,0.177,0.035,0.283,0.071,0.389
				c0.07,0.07,0.141,0.105,0.282,0.105c0.105,0,0.176-0.035,0.247-0.141c0.07-0.07,0.07-0.212,0.07-0.354
				c0-0.176-0.035-0.281-0.07-0.353C83.231,118.301,83.16,118.266,83.054,118.266z"/>
			<path fill="#CCCCCC" d="M84.642,119.501c-0.211,0-0.388-0.07-0.529-0.177c-0.141-0.141-0.176-0.317-0.176-0.529
				c0-0.246,0.07-0.423,0.176-0.564c0.106-0.141,0.282-0.211,0.494-0.211c0.176,0,0.353,0.07,0.458,0.176s0.176,0.283,0.176,0.459
				v0.176h-0.953c0,0.142,0.036,0.248,0.106,0.318c0.071,0.07,0.177,0.105,0.282,0.105c0.071,0,0.177,0,0.247-0.035
				c0.071,0,0.141-0.035,0.247-0.07v0.246c-0.071,0.036-0.141,0.071-0.212,0.071C84.854,119.501,84.748,119.501,84.642,119.501z
				 M84.607,118.266c-0.106,0-0.176,0.035-0.247,0.106c-0.071,0.07-0.106,0.142-0.106,0.282h0.635c0-0.105-0.035-0.212-0.071-0.282
				C84.783,118.266,84.677,118.266,84.607,118.266z"/>
			<path fill="#CCCCCC" d="M86.265,118.02c0.07,0,0.106,0,0.141,0l-0.035,0.281c-0.036,0-0.071,0-0.141,0
				c-0.106,0-0.212,0.036-0.282,0.106c-0.071,0.071-0.106,0.177-0.106,0.317v0.741h-0.317v-1.411h0.247l0.036,0.246l0,0
				c0.035-0.07,0.105-0.141,0.176-0.211C86.089,118.055,86.194,118.02,86.265,118.02z"/>
			<path fill="#CCCCCC" d="M87.57,119.466l-0.07-0.212l0,0c-0.07,0.07-0.141,0.141-0.212,0.177c-0.07,0.035-0.176,0.035-0.282,0.035
				c-0.141,0-0.247-0.035-0.317-0.106c-0.07-0.07-0.106-0.176-0.106-0.316c0-0.142,0.071-0.248,0.177-0.318
				c0.105-0.07,0.282-0.105,0.494-0.105H87.5v-0.07c0-0.106-0.035-0.177-0.071-0.212c-0.035-0.036-0.105-0.071-0.211-0.071
				c-0.071,0-0.141,0-0.212,0.035c-0.07,0.036-0.141,0.036-0.176,0.071l-0.106-0.212c0.071-0.035,0.177-0.07,0.247-0.105
				c0.106-0.035,0.176-0.035,0.247-0.035c0.176,0,0.317,0.035,0.423,0.105s0.141,0.212,0.141,0.389v0.952H87.57L87.57,119.466z
				 M87.147,119.254c0.106,0,0.212-0.035,0.283-0.105c0.07-0.07,0.105-0.142,0.105-0.247v-0.142h-0.176
				c-0.141,0-0.247,0.035-0.317,0.07c-0.071,0.035-0.106,0.106-0.106,0.213c0,0.07,0.035,0.105,0.07,0.141
				C87.006,119.254,87.042,119.254,87.147,119.254z"/>
			<path fill="#CCCCCC" d="M88.734,119.254c0.071,0,0.142,0,0.213-0.035v0.212c-0.036,0-0.071,0.035-0.142,0.035
				c-0.036,0-0.106,0-0.177,0c-0.282,0-0.424-0.142-0.424-0.459v-0.776h-0.211v-0.141l0.211-0.105l0.106-0.318h0.177v0.318h0.423
				v0.211h-0.353v0.776c0,0.071,0.035,0.142,0.07,0.177C88.629,119.254,88.699,119.254,88.734,119.254z"/>
			<path fill="#CCCCCC" d="M89.229,117.666c0-0.07,0-0.105,0.035-0.141s0.07-0.035,0.142-0.035c0.07,0,0.106,0,0.142,0.035
				s0.035,0.07,0.035,0.141c0,0.035,0,0.105-0.035,0.105c-0.035,0.036-0.071,0.036-0.142,0.036c-0.071,0-0.106,0-0.142-0.036
				C89.264,117.771,89.229,117.736,89.229,117.666z M89.547,119.466h-0.283v-1.411h0.318L89.547,119.466L89.547,119.466z"/>
			<path fill="#CCCCCC" d="M91.24,118.76c0,0.247-0.07,0.424-0.177,0.529c-0.106,0.142-0.282,0.212-0.494,0.212
				c-0.142,0-0.247-0.035-0.353-0.106c-0.105-0.07-0.176-0.141-0.247-0.246c-0.07-0.105-0.07-0.247-0.07-0.389
				c0-0.246,0.07-0.423,0.177-0.529c0.105-0.141,0.281-0.211,0.493-0.211s0.353,0.07,0.494,0.211
				C91.205,118.372,91.24,118.549,91.24,118.76z M90.217,118.76c0,0.318,0.105,0.494,0.353,0.494s0.353-0.176,0.353-0.494
				c0-0.317-0.105-0.494-0.353-0.494c-0.142,0-0.212,0.035-0.282,0.142C90.252,118.479,90.217,118.584,90.217,118.76z"/>
			<path fill="#CCCCCC" d="M92.863,119.466h-0.318v-0.882c0-0.105-0.035-0.177-0.07-0.247c-0.035-0.071-0.105-0.071-0.211-0.071
				c-0.142,0-0.213,0.035-0.283,0.106c-0.07,0.07-0.105,0.212-0.105,0.388v0.706h-0.317v-1.411h0.247l0.035,0.176l0,0
				c0.035-0.07,0.105-0.105,0.176-0.141c0.071-0.035,0.177-0.07,0.248-0.07c0.352,0,0.529,0.176,0.529,0.529v0.917H92.863
				L92.863,119.466z"/>
			<path fill="#CCCCCC" d="M94.238,119.078c0,0.141-0.035,0.246-0.141,0.316c-0.105,0.071-0.247,0.106-0.424,0.106
				c-0.176,0-0.352-0.035-0.458-0.07v-0.247c0.177,0.07,0.317,0.105,0.458,0.105c0.177,0,0.283-0.07,0.283-0.176
				c0-0.035,0-0.07-0.035-0.106c-0.035-0.035-0.071-0.035-0.106-0.07s-0.106-0.071-0.212-0.071c-0.176-0.07-0.281-0.141-0.317-0.176
				c-0.07-0.07-0.07-0.141-0.07-0.247c0-0.105,0.035-0.212,0.142-0.282c0.105-0.07,0.246-0.105,0.388-0.105
				c0.177,0,0.317,0.035,0.458,0.105l-0.105,0.212c-0.141-0.071-0.282-0.106-0.389-0.106c-0.176,0-0.246,0.035-0.246,0.142
				c0,0.035,0.035,0.071,0.07,0.106s0.141,0.07,0.282,0.141c0.106,0.035,0.212,0.07,0.247,0.141c0.07,0.035,0.105,0.07,0.105,0.142
				C94.238,118.937,94.238,119.007,94.238,119.078z"/>
			<path fill="#CCCCCC" d="M81.255,122.218c0,0.142-0.035,0.247-0.141,0.317s-0.247,0.105-0.423,0.105
				c-0.176,0-0.353-0.035-0.458-0.07v-0.246c0.176,0.07,0.317,0.105,0.458,0.105c0.177,0,0.282-0.07,0.282-0.177
				c0-0.035,0-0.07-0.035-0.106c-0.035-0.035-0.07-0.035-0.106-0.07c-0.035-0.035-0.106-0.07-0.211-0.07
				c-0.177-0.07-0.282-0.141-0.318-0.176c-0.07-0.071-0.07-0.142-0.07-0.248c0-0.105,0.035-0.211,0.141-0.281
				s0.247-0.106,0.388-0.106c0.176,0,0.317,0.036,0.458,0.106l-0.106,0.211c-0.141-0.07-0.282-0.105-0.388-0.105
				c-0.176,0-0.247,0.035-0.247,0.141c0,0.035,0.035,0.071,0.07,0.106s0.141,0.07,0.282,0.142c0.106,0.035,0.212,0.07,0.247,0.141
				c0.071,0.035,0.106,0.07,0.106,0.141C81.255,122.111,81.255,122.183,81.255,122.218z"/>
			<path fill="#CCCCCC" d="M82.208,122.676c-0.211,0-0.388-0.07-0.529-0.176c-0.141-0.141-0.176-0.317-0.176-0.529
				c0-0.247,0.071-0.424,0.176-0.564c0.106-0.141,0.282-0.212,0.494-0.212c0.176,0,0.353,0.071,0.458,0.177
				c0.106,0.105,0.177,0.282,0.177,0.459v0.176h-0.953c0,0.141,0.035,0.247,0.105,0.318c0.071,0.07,0.177,0.105,0.283,0.105
				c0.07,0,0.176,0,0.247-0.035c0.071,0,0.141-0.035,0.247-0.07v0.246c-0.07,0.035-0.141,0.07-0.211,0.07
				C82.384,122.641,82.313,122.676,82.208,122.676z M82.172,121.406c-0.106,0-0.176,0.035-0.247,0.105
				c-0.07,0.07-0.106,0.142-0.106,0.283h0.635c0-0.106-0.035-0.213-0.07-0.283C82.349,121.441,82.243,121.406,82.172,121.406z"/>
			<path fill="#CCCCCC" d="M83.831,121.194c0.071,0,0.106,0,0.141,0l-0.035,0.282c-0.035,0-0.071,0-0.141,0
				c-0.106,0-0.212,0.035-0.282,0.105c-0.071,0.071-0.106,0.178-0.106,0.318v0.74H83.09v-1.41h0.247l0.035,0.246l0,0
				c0.035-0.07,0.106-0.141,0.176-0.211C83.654,121.23,83.76,121.194,83.831,121.194z"/>
			<path fill="#CCCCCC" d="M84.572,122.641l-0.529-1.41h0.317l0.282,0.811c0.035,0.142,0.071,0.247,0.106,0.354l0,0
				c0-0.07,0.035-0.177,0.106-0.354l0.282-0.811h0.317l-0.529,1.41H84.572z"/>
			<path fill="#CCCCCC" d="M86.3,122.676c-0.211,0-0.388-0.07-0.529-0.176c-0.141-0.141-0.176-0.317-0.176-0.529
				c0-0.247,0.071-0.424,0.176-0.564c0.106-0.141,0.282-0.212,0.494-0.212c0.176,0,0.353,0.071,0.458,0.177
				c0.106,0.105,0.177,0.282,0.177,0.459v0.176h-0.953c0,0.141,0.035,0.247,0.105,0.318c0.071,0.07,0.177,0.105,0.283,0.105
				c0.07,0,0.176,0,0.247-0.035c0.071,0,0.141-0.035,0.247-0.07v0.246c-0.07,0.035-0.141,0.07-0.211,0.07
				C86.477,122.641,86.371,122.676,86.3,122.676z M86.23,121.406c-0.106,0-0.177,0.035-0.247,0.105
				c-0.071,0.07-0.106,0.142-0.106,0.283h0.635c0-0.106-0.036-0.213-0.071-0.283S86.335,121.406,86.23,121.406z"/>
			<path fill="#CCCCCC" d="M87.923,121.194c0.071,0,0.106,0,0.141,0l-0.035,0.282c-0.035,0-0.071,0-0.141,0
				c-0.106,0-0.212,0.035-0.282,0.105c-0.071,0.071-0.106,0.178-0.106,0.318v0.74h-0.317v-1.41h0.247l0.036,0.246l0,0
				c0.035-0.07,0.105-0.141,0.176-0.211C87.747,121.23,87.817,121.194,87.923,121.194z"/>
			<path fill="#CCCCCC" d="M89.264,122.218c0,0.142-0.035,0.247-0.141,0.317s-0.247,0.105-0.424,0.105
				c-0.176,0-0.353-0.035-0.459-0.07v-0.246c0.178,0.07,0.318,0.105,0.459,0.105c0.177,0,0.283-0.07,0.283-0.177
				c0-0.035,0-0.07-0.035-0.106c-0.036-0.035-0.071-0.035-0.106-0.07s-0.106-0.07-0.212-0.07c-0.176-0.07-0.282-0.141-0.317-0.176
				c-0.071-0.071-0.071-0.142-0.071-0.248c0-0.105,0.036-0.211,0.142-0.281c0.106-0.07,0.247-0.106,0.388-0.106
				c0.178,0,0.318,0.036,0.459,0.106l-0.105,0.211c-0.141-0.07-0.282-0.105-0.389-0.105c-0.176,0-0.246,0.035-0.246,0.141
				c0,0.035,0.035,0.071,0.07,0.106s0.141,0.07,0.282,0.142c0.106,0.035,0.212,0.07,0.247,0.141c0.07,0.035,0.105,0.07,0.105,0.141
				C89.264,122.111,89.264,122.183,89.264,122.218z"/>
		</g>
		<g>
			<path fill="#CCCCCC" d="M129.768,117.843c-0.176,0-0.316,0.07-0.423,0.177c-0.106,0.141-0.142,0.281-0.142,0.529
				c0,0.246,0.035,0.423,0.142,0.529c0.106,0.105,0.247,0.176,0.423,0.176c0.071,0,0.142,0,0.248-0.035
				c0.07,0,0.141-0.035,0.246-0.07v0.246c-0.141,0.071-0.317,0.071-0.494,0.071c-0.281,0-0.493-0.071-0.635-0.247
				c-0.141-0.176-0.211-0.424-0.211-0.705c0-0.213,0.035-0.354,0.105-0.529c0.07-0.142,0.176-0.248,0.317-0.354
				c0.142-0.07,0.282-0.105,0.494-0.105c0.177,0,0.353,0.035,0.529,0.105l-0.106,0.247c-0.07-0.035-0.141-0.07-0.211-0.07
				C129.909,117.878,129.839,117.843,129.768,117.843z"/>
			<path fill="#CCCCCC" d="M131.85,118.795c0,0.248-0.07,0.424-0.176,0.529c-0.106,0.142-0.283,0.212-0.494,0.212
				c-0.142,0-0.247-0.035-0.354-0.105c-0.105-0.071-0.176-0.142-0.246-0.247s-0.07-0.247-0.07-0.389c0-0.246,0.07-0.423,0.176-0.529
				c0.105-0.141,0.282-0.211,0.494-0.211c0.211,0,0.353,0.07,0.494,0.211C131.779,118.372,131.85,118.584,131.85,118.795z
				 M130.826,118.795c0,0.318,0.106,0.494,0.354,0.494c0.246,0,0.353-0.176,0.353-0.494c0-0.316-0.106-0.494-0.353-0.494
				c-0.142,0-0.212,0.036-0.283,0.142C130.861,118.514,130.826,118.619,130.826,118.795z"/>
			<path fill="#CCCCCC" d="M133.473,119.501h-0.317v-0.882c0-0.105-0.035-0.177-0.071-0.247c-0.035-0.071-0.105-0.071-0.211-0.071
				c-0.141,0-0.212,0.036-0.282,0.106c-0.071,0.071-0.106,0.212-0.106,0.388v0.706h-0.316v-1.411h0.246l0.035,0.176l0,0
				c0.035-0.07,0.106-0.105,0.177-0.141c0.071-0.035,0.177-0.07,0.247-0.07c0.353,0,0.529,0.176,0.529,0.529v0.917H133.473z"/>
			<path fill="#CCCCCC" d="M134.391,119.289c0.07,0,0.141,0,0.211-0.035v0.212c-0.035,0-0.07,0.035-0.141,0.035
				c-0.035,0-0.105,0-0.177,0c-0.282,0-0.423-0.142-0.423-0.458v-0.777h-0.142v-0.141l0.212-0.105l0.105-0.318h0.177v0.318h0.423
				v0.246h-0.423v0.777c0,0.07,0.035,0.141,0.07,0.176C134.284,119.254,134.355,119.289,134.391,119.289z"/>
			<path fill="#CCCCCC" d="M135.625,118.055c0.07,0,0.105,0,0.141,0l-0.035,0.282c-0.035,0-0.07,0-0.141,0
				c-0.105,0-0.212,0.035-0.282,0.105c-0.071,0.071-0.106,0.177-0.106,0.317v0.741h-0.316v-1.411h0.246l0.035,0.247l0,0
				c0.035-0.071,0.105-0.142,0.177-0.212C135.484,118.09,135.555,118.055,135.625,118.055z"/>
			<path fill="#CCCCCC" d="M137.318,118.795c0,0.248-0.07,0.424-0.176,0.529c-0.106,0.142-0.283,0.212-0.494,0.212
				c-0.142,0-0.247-0.035-0.354-0.105c-0.105-0.071-0.176-0.142-0.246-0.247s-0.07-0.247-0.07-0.389c0-0.246,0.07-0.423,0.176-0.529
				c0.105-0.141,0.282-0.211,0.494-0.211c0.211,0,0.353,0.07,0.494,0.211C137.248,118.372,137.318,118.584,137.318,118.795z
				 M136.295,118.795c0,0.318,0.106,0.494,0.354,0.494c0.246,0,0.353-0.176,0.353-0.494c0-0.316-0.106-0.494-0.353-0.494
				c-0.142,0-0.212,0.036-0.283,0.142C136.295,118.514,136.295,118.619,136.295,118.795z"/>
			<path fill="#CCCCCC" d="M137.953,119.501h-0.316v-2.011h0.316V119.501z"/>
			<path fill="#CCCCCC" d="M129.874,122.253c0,0.142-0.035,0.247-0.142,0.317c-0.105,0.07-0.246,0.105-0.423,0.105
				s-0.353-0.035-0.459-0.07v-0.246c0.177,0.07,0.317,0.105,0.459,0.105c0.177,0,0.282-0.07,0.282-0.177c0-0.035,0-0.07-0.035-0.105
				c-0.035-0.036-0.07-0.036-0.105-0.071s-0.106-0.07-0.213-0.07c-0.176-0.07-0.281-0.141-0.316-0.176
				c-0.071-0.07-0.071-0.142-0.071-0.247c0-0.106,0.036-0.212,0.142-0.282s0.246-0.105,0.388-0.105c0.177,0,0.317,0.035,0.459,0.105
				l-0.106,0.211c-0.141-0.07-0.281-0.105-0.388-0.105c-0.177,0-0.247,0.035-0.247,0.141c0,0.036,0.035,0.071,0.07,0.106
				s0.142,0.07,0.283,0.142c0.105,0.035,0.211,0.07,0.246,0.141c0.07,0.035,0.105,0.07,0.105,0.141
				C129.874,122.146,129.874,122.183,129.874,122.253z"/>
			<path fill="#CCCCCC" d="M130.826,122.712c-0.211,0-0.388-0.071-0.529-0.177c-0.141-0.141-0.176-0.317-0.176-0.529
				c0-0.246,0.07-0.424,0.176-0.564c0.106-0.141,0.283-0.211,0.494-0.211c0.177,0,0.354,0.07,0.459,0.176s0.176,0.282,0.176,0.459
				v0.176h-0.952c0,0.142,0.036,0.247,0.106,0.318c0.07,0.07,0.176,0.105,0.281,0.105c0.071,0,0.177,0,0.248-0.035
				c0.07,0,0.141-0.035,0.246-0.07v0.246c-0.07,0.035-0.141,0.07-0.211,0.07C131.003,122.676,130.933,122.712,130.826,122.712z
				 M130.756,121.441c-0.105,0-0.176,0.035-0.246,0.105c-0.071,0.071-0.106,0.142-0.106,0.283h0.635c0-0.106-0.035-0.212-0.07-0.283
				C130.933,121.477,130.861,121.441,130.756,121.441z"/>
			<path fill="#CCCCCC" d="M132.449,121.23c0.07,0,0.106,0,0.142,0l-0.035,0.281c-0.036,0-0.071,0-0.142,0
				c-0.105,0-0.211,0.035-0.282,0.106c-0.07,0.07-0.105,0.177-0.105,0.317v0.74h-0.317v-1.41h0.246l0.035,0.246l0,0
				c0.036-0.07,0.106-0.141,0.178-0.211C132.273,121.23,132.344,121.23,132.449,121.23z"/>
			<path fill="#CCCCCC" d="M133.19,122.676l-0.529-1.41h0.317l0.283,0.811c0.035,0.142,0.07,0.248,0.105,0.354l0,0
				c0-0.07,0.035-0.177,0.105-0.354l0.282-0.811h0.317l-0.529,1.41H133.19z"/>
			<path fill="#CCCCCC" d="M134.885,122.712c-0.213,0-0.389-0.071-0.529-0.177c-0.142-0.141-0.178-0.317-0.178-0.529
				c0-0.246,0.071-0.424,0.178-0.564c0.105-0.141,0.281-0.211,0.493-0.211c0.177,0,0.353,0.07,0.459,0.176
				c0.105,0.105,0.177,0.282,0.177,0.459v0.176h-0.953c0,0.142,0.035,0.247,0.105,0.318c0.07,0.07,0.177,0.105,0.283,0.105
				c0.07,0,0.176,0,0.246-0.035c0.07,0,0.142-0.035,0.247-0.07v0.246c-0.07,0.035-0.142,0.07-0.212,0.07
				C135.061,122.676,134.99,122.712,134.885,122.712z M134.849,121.441c-0.105,0-0.177,0.035-0.247,0.105
				c-0.07,0.071-0.105,0.142-0.105,0.283h0.635c0-0.106-0.035-0.212-0.07-0.283C135.025,121.477,134.92,121.441,134.849,121.441z"/>
			<path fill="#CCCCCC" d="M136.507,121.23c0.071,0,0.106,0,0.142,0l-0.035,0.281c-0.035,0-0.07,0-0.142,0
				c-0.106,0-0.212,0.035-0.282,0.106c-0.07,0.07-0.105,0.177-0.105,0.317v0.74h-0.318v-1.41h0.248l0.035,0.246l0,0
				c0.035-0.07,0.105-0.141,0.176-0.211S136.437,121.23,136.507,121.23z"/>
			<path fill="#CCCCCC" d="M137.883,122.253c0,0.142-0.035,0.247-0.141,0.317s-0.247,0.105-0.424,0.105
				c-0.176,0-0.353-0.035-0.459-0.07v-0.246c0.177,0.07,0.318,0.105,0.459,0.105c0.177,0,0.282-0.07,0.282-0.177
				c0-0.035,0-0.07-0.035-0.105c-0.035-0.036-0.07-0.036-0.106-0.071c-0.035-0.035-0.105-0.07-0.211-0.07
				c-0.176-0.07-0.282-0.141-0.317-0.176c-0.036-0.035-0.071-0.142-0.071-0.247c0-0.106,0.035-0.212,0.142-0.282
				s0.247-0.105,0.388-0.105c0.177,0,0.318,0.035,0.459,0.105l-0.105,0.211c-0.142-0.07-0.283-0.105-0.389-0.105
				c-0.176,0-0.246,0.035-0.246,0.141c0,0.036,0.035,0.071,0.07,0.106s0.141,0.07,0.281,0.142c0.106,0.035,0.213,0.07,0.248,0.141
				c0.07,0.035,0.105,0.07,0.105,0.141C137.883,122.146,137.883,122.183,137.883,122.253z"/>
		</g>
		<g>
			<g>
				<g>
					<path fill="#A1C6A1" d="M96.885,115.938H76.104v-9.703h20.781V115.938z M76.88,115.161h19.194v-8.114H76.88V115.161z"/>
				</g>
				<g>
					<g>
						<g>
							<rect x="85.136" y="109.021" fill="#A1C6A1" width="9.985" height="0.459"/>
						</g>
					</g>
				</g>
				<g>
					<g>
						<g>
							<rect x="85.136" y="107.999" fill="#A1C6A1" width="9.985" height="0.458"/>
						</g>
					</g>
				</g>
			</g>
			<g>
				<g>
					<path fill="#A1C6A1" d="M96.885,105.67H76.104v-9.702h20.781V105.67z M76.88,104.895h19.194v-8.115H76.88V104.895z"/>
				</g>
				<g>
					<g>
						<g>
							<rect x="85.136" y="98.72" fill="#A1C6A1" width="9.985" height="0.458"/>
						</g>
					</g>
				</g>
				<g>
					<g>
						<g>
							<rect x="85.136" y="97.732" fill="#A1C6A1" width="9.985" height="0.458"/>
						</g>
					</g>
				</g>
			</g>
			<g>
				<g>
					<path fill="#A1C6A1" d="M96.885,95.368H76.104v-9.703h20.781V95.368z M76.88,94.592h19.194v-8.115H76.88V94.592z"/>
				</g>
				<g>
					<g>
						<g>
							<rect x="85.136" y="88.453" fill="#A1C6A1" width="9.985" height="0.458"/>
						</g>
					</g>
				</g>
				<g>
					<g>
						<g>
							<rect x="85.136" y="87.43" fill="#A1C6A1" width="9.985" height="0.458"/>
						</g>
					</g>
				</g>
			</g>
		</g>
		<g>
			<g>
				<g>
					<path fill="#A37DB2" d="M55.146,115.938H34.577v-9.597h20.534v9.597H55.146z M35.353,115.161h18.981v-8.044H35.353V115.161z"/>
				</g>
				<g>
					<g>
						<g>
							<rect x="43.503" y="109.093" fill="#A37DB2" width="9.879" height="0.423"/>
						</g>
					</g>
				</g>
				<g>
					<g>
						<g>
							<rect x="43.503" y="108.105" fill="#A37DB2" width="9.879" height="0.423"/>
						</g>
					</g>
				</g>
			</g>
			<g>
				<g>
					<path fill="#A37DB2" d="M55.146,105.776H34.577V96.18h20.534v9.597H55.146z M35.353,105h18.981v-8.045H35.353V105z"/>
				</g>
				<g>
					<g>
						<g>
							<rect x="43.503" y="98.896" fill="#A37DB2" width="9.879" height="0.423"/>
						</g>
					</g>
				</g>
				<g>
					<g>
						<g>
							<rect x="43.503" y="97.908" fill="#A37DB2" width="9.879" height="0.424"/>
						</g>
					</g>
				</g>
			</g>
			<g>
				<g>
					<path fill="#A37DB2" d="M55.146,95.615H34.577v-9.597h20.534v9.597H55.146z M35.353,94.839h18.981v-8.044H35.353V94.839z"/>
				</g>
				<g>
					<g>
						<g>
							<rect x="43.503" y="88.734" fill="#A37DB2" width="9.879" height="0.424"/>
						</g>
					</g>
				</g>
				<g>
					<g>
						<g>
							<rect x="43.503" y="87.747" fill="#A37DB2" width="9.879" height="0.423"/>
						</g>
					</g>
				</g>
			</g>
		</g>
		<g opacity="0.61">
			<g>
				<g>
					<path fill="#A37DB2" d="M55.146,108.352c0,0.142,0.036,0.247,0.036,0.389c0,0.07,0,0.141,0.035,0.211h8.115v6.352h-8.115
						c0,0.211,0.035,0.423,0.035,0.6h8.68v-7.586L55.146,108.352L55.146,108.352z"/>
				</g>
				<g>
					<g>
						<g>
							<path fill="#A37DB2" d="M55.287,110.504c0,0.105,0,0.247,0,0.354h7.233v-0.354H55.287z"/>
						</g>
					</g>
				</g>
				<g>
					<g>
						<g>
							<path fill="#A37DB2" d="M55.252,109.729c0,0.105,0,0.246,0.035,0.352h7.269v-0.352H55.252z"/>
						</g>
					</g>
				</g>
			</g>
			<g>
				<g>
					<path fill="#A37DB2" d="M54.864,100.308c0,0.212,0,0.423-0.035,0.6h8.468v6.351h-8.256c0,0.212,0.035,0.424,0.035,0.6h8.82
						v-7.586L54.864,100.308L54.864,100.308z"/>
				</g>
				<g>
					<g>
						<g>
							<path fill="#A37DB2" d="M54.829,102.459c0,0.106,0,0.248,0,0.354h7.691v-0.354H54.829z"/>
						</g>
					</g>
				</g>
				<g>
					<g>
						<g>
							<path fill="#A37DB2" d="M54.793,101.684c0,0.105,0,0.247,0,0.353h7.727v-0.353H54.793z"/>
						</g>
					</g>
				</g>
			</g>
			<g>
				<g>
					<path fill="#A37DB2" d="M55.041,92.264c-0.036,0.141-0.071,0.246-0.106,0.388c0,0.07,0,0.142,0,0.212h8.362v6.351h-8.397
						c0,0.212,0,0.423-0.036,0.6h9.032v-7.585L55.041,92.264L55.041,92.264z"/>
				</g>
				<g>
					<g>
						<g>
							<path fill="#A37DB2" d="M54.97,94.416c0,0.105,0,0.246,0,0.352h7.586v-0.352H54.97z"/>
						</g>
					</g>
				</g>
				<g>
					<g>
						<g>
							<path fill="#A37DB2" d="M54.97,93.639c0,0.106,0,0.248,0,0.354h7.586v-0.354H54.97z"/>
						</g>
					</g>
				</g>
			</g>
		</g>
		<g opacity="0.34">
			<g>
				<g>
					<path fill="#A37DB2" d="M63.861,110.08v0.459h6.033v4.904h-6.068c0,0.035,0,0.07,0,0.105c0,0.071,0.035,0.106,0.035,0.177
						c0,0.071,0,0.142,0,0.212h6.527v-5.857H63.861z"/>
				</g>
				<g>
					<g>
						<g>
							<rect x="63.861" y="111.738" fill="#A37DB2" width="5.469" height="0.283"/>
						</g>
					</g>
				</g>
				<g>
					<g>
						<g>
							<rect x="63.861" y="111.139" fill="#A37DB2" width="5.469" height="0.283"/>
						</g>
					</g>
				</g>
			</g>
			<g>
				<g>
					<path fill="#A37DB2" d="M63.861,103.871c0,0.07,0,0.141-0.035,0.176c0,0.035,0,0.071,0,0.106c0,0.07,0.035,0.106,0.035,0.177
						h6.033v4.904h-6.033v0.458h6.527v-5.856h-6.527V103.871z"/>
				</g>
				<g>
					<g>
						<g>
							<path fill="#A37DB2" d="M63.896,105.529c0,0.105,0,0.176-0.035,0.282h5.434v-0.282H63.896z"/>
						</g>
					</g>
				</g>
				<g>
					<g>
						<g>
							<path fill="#A37DB2" d="M63.896,104.93c0,0.105,0,0.176,0,0.282h5.398v-0.282H63.896z"/>
						</g>
					</g>
				</g>
			</g>
			<g>
				<g>
					<path fill="#A37DB2" d="M63.896,97.661L63.896,97.661c0,0.177,0,0.317,0,0.459h6.033v4.904h-5.998c0,0.07,0,0.105-0.036,0.177
						c0,0.105,0.036,0.176,0.036,0.281v0.035h6.492v-5.856H63.896z"/>
				</g>
				<g>
					<g>
						<g>
							<path fill="#A37DB2" d="M63.896,99.319c0,0.036,0,0.071,0,0.071c0,0.07,0,0.105,0,0.176h5.434v-0.282L63.896,99.319
								L63.896,99.319z"/>
						</g>
					</g>
				</g>
				<g>
					<g>
						<g>
							<path fill="#A37DB2" d="M63.896,98.72c0,0.106,0,0.177,0,0.282h5.434V98.72H63.896z"/>
						</g>
					</g>
				</g>
			</g>
		</g>
		<g opacity="0.62">
			<g>
				<g>
					<path fill="#A1C6A1" d="M96.497,108.352c0,0.142,0.035,0.247,0.035,0.389c0,0.07,0,0.141,0.035,0.211h8.115v6.352h-8.115
						c0,0.211,0.036,0.423,0.036,0.6h8.679v-7.586L96.497,108.352L96.497,108.352z"/>
				</g>
				<g>
					<g>
						<g>
							<path fill="#A1C6A1" d="M96.674,110.504c0,0.105,0,0.247,0,0.354h7.232v-0.354H96.674z"/>
						</g>
					</g>
				</g>
				<g>
					<g>
						<g>
							<path fill="#A1C6A1" d="M96.604,109.729c0,0.105,0,0.246,0.035,0.352h7.268v-0.352H96.604z"/>
						</g>
					</g>
				</g>
			</g>
			<g>
				<g>
					<path fill="#A1C6A1" d="M96.25,100.308c0,0.212,0,0.423-0.035,0.6h8.468v6.351h-8.257c0,0.212,0.036,0.424,0.036,0.6h8.82
						v-7.586L96.25,100.308L96.25,100.308z"/>
				</g>
				<g>
					<g>
						<g>
							<path fill="#A1C6A1" d="M96.215,102.459c0,0.106,0,0.248,0,0.354h7.691v-0.354H96.215z"/>
						</g>
					</g>
				</g>
				<g>
					<g>
						<g>
							<path fill="#A1C6A1" d="M96.18,101.684c0,0.105,0,0.247,0,0.353h7.727v-0.353H96.18z"/>
						</g>
					</g>
				</g>
			</g>
			<g>
				<g>
					<path fill="#A1C6A1" d="M96.426,92.264c-0.035,0.141-0.07,0.246-0.105,0.388c0,0.07,0,0.142,0,0.212h8.362v6.351h-8.397
						c0,0.212,0,0.423-0.035,0.6h9.032v-7.585L96.426,92.264L96.426,92.264z"/>
				</g>
				<g>
					<g>
						<g>
							<path fill="#A1C6A1" d="M96.355,94.416c0,0.105,0,0.246,0,0.352h7.586v-0.352H96.355z"/>
						</g>
					</g>
				</g>
				<g>
					<g>
						<g>
							<path fill="#A1C6A1" d="M96.32,93.639c0,0.106,0,0.248,0,0.354h7.586v-0.354H96.32z"/>
						</g>
					</g>
				</g>
			</g>
		</g>
		<g opacity="0.34">
			<g>
				<g>
					<polygon fill="#A1C6A1" points="105.282,110.08 105.282,110.539 111.387,110.539 111.387,115.479 105.282,115.479 
						105.282,115.938 111.88,115.938 111.88,110.08 					"/>
				</g>
				<g>
					<g>
						<g>
							<rect x="105.282" y="111.738" fill="#A1C6A1" width="5.504" height="0.283"/>
						</g>
					</g>
				</g>
				<g>
					<g>
						<g>
							<rect x="105.282" y="111.139" fill="#A1C6A1" width="5.504" height="0.283"/>
						</g>
					</g>
				</g>
			</g>
			<g>
				<g>
					<path fill="#A1C6A1" d="M105.317,103.871v0.459h6.069v4.904h-6.069c0,0.07,0,0.141,0,0.211v0.247h6.563v-5.856h-6.563V103.871z
						"/>
				</g>
				<g>
					<g>
						<g>
							<rect x="105.317" y="105.529" fill="#A1C6A1" width="5.469" height="0.282"/>
						</g>
					</g>
				</g>
				<g>
					<g>
						<g>
							<rect x="105.317" y="104.93" fill="#A1C6A1" width="5.469" height="0.282"/>
						</g>
					</g>
				</g>
			</g>
			<g>
				<g>
					<polygon fill="#A1C6A1" points="105.317,97.661 105.317,98.12 111.387,98.12 111.387,103.024 105.317,103.024 105.317,103.518 
						111.88,103.518 111.88,97.661 					"/>
				</g>
				<g>
					<g>
						<g>
							<rect x="105.317" y="99.319" fill="#A1C6A1" width="5.469" height="0.282"/>
						</g>
					</g>
				</g>
				<g>
					<g>
						<g>
							<rect x="105.317" y="98.72" fill="#A1C6A1" width="5.469" height="0.282"/>
						</g>
					</g>
				</g>
			</g>
		</g>
		<polygon fill="#CCCCCC" points="69.824,52.183 68.307,53.559 68.06,53.312 69.294,52.183 68.06,51.053 68.307,50.771 		"/>
		<polygon fill="#CCCCCC" points="94.486,45.408 94.238,45.69 92.722,44.279 94.238,42.868 94.486,43.15 93.251,44.279 		"/>
		<polygon fill="#CCCCCC" points="133.367,84.501 134.778,82.949 134.496,82.702 133.367,83.937 132.238,82.702 131.99,82.949 		"/>
		<polygon fill="#CCCCCC" points="39.481,84.501 40.892,82.949 40.61,82.702 39.481,83.937 38.352,82.702 38.105,82.949 		"/>
		<polygon fill="#CCCCCC" points="86.477,84.113 87.888,82.596 87.606,82.349 86.477,83.583 85.348,82.349 85.101,82.596 		"/>
		<polygon fill="#CCCCCC" points="86.477,54.758 87.888,53.241 87.606,52.994 86.477,54.229 85.348,52.994 85.101,53.241 		"/>
		<polygon fill="#CCCCCC" points="86.477,64.778 85.101,66.295 85.348,66.542 86.477,65.308 87.606,66.542 87.888,66.295 		"/>
		<polygon fill="#CCCCCC" points="78.186,117.031 76.774,118.549 77.057,118.795 78.186,117.561 79.314,118.795 79.597,118.549 		
			"/>
		<polygon fill="#CCCCCC" points="86.477,49.748 85.101,51.3 85.348,51.547 86.477,50.313 87.606,51.547 87.888,51.3 		"/>
		<g>
			<path fill="#EFD59A" d="M88.734,48.619c-2.011,1.235-4.692,0.6-5.927-1.412c-1.235-2.011-0.6-4.692,1.411-5.927
				c2.046-1.235,4.692-0.6,5.928,1.411C91.416,44.703,90.781,47.384,88.734,48.619z M84.501,41.668
				c-1.799,1.094-2.364,3.458-1.27,5.257s3.458,2.364,5.257,1.27c1.799-1.094,2.363-3.458,1.27-5.257S86.3,40.575,84.501,41.668z"/>
			<circle fill="#EFD59A" cx="86.477" cy="44.949" r="2.787"/>
		</g>
		<g>
			<path fill="#EFD59A" d="M88.734,63.367c-2.046,1.234-4.692,0.6-5.927-1.412c-1.235-2.046-0.6-4.692,1.411-5.927
				s4.692-0.6,5.928,1.411C91.381,59.451,90.781,62.132,88.734,63.367z M84.501,56.452c-1.799,1.094-2.364,3.458-1.27,5.257
				s3.458,2.364,5.257,1.271c1.799-1.094,2.363-3.458,1.27-5.257C88.664,55.887,86.3,55.323,84.501,56.452z"/>
			<circle fill="#EFD59A" cx="86.477" cy="59.698" r="2.787"/>
		</g>
		<g>
			<path fill="#EFD59A" d="M76.739,55.816c-2.011,1.235-4.692,0.6-5.927-1.411s-0.6-4.692,1.411-5.927
				c2.011-1.235,4.693-0.6,5.928,1.411S78.75,54.582,76.739,55.816z M72.47,48.866c-1.799,1.094-2.364,3.458-1.27,5.257
				s3.458,2.364,5.257,1.27s2.364-3.458,1.27-5.257S74.269,47.772,72.47,48.866z"/>
			<circle fill="#EFD59A" cx="74.481" cy="52.147" r="2.787"/>
		</g>
		<g>
			<g>
				<path fill="#CCCCCC" d="M120.595,114.385l-0.177-0.494h-0.67l-0.176,0.494h-0.283l0.635-1.729h0.318l0.635,1.729H120.595z
					 M120.348,113.68l-0.176-0.459c0-0.035-0.035-0.07-0.035-0.141c-0.036-0.07-0.036-0.106-0.036-0.142
					c-0.035,0.106-0.035,0.212-0.105,0.317l-0.142,0.459h0.494V113.68z"/>
				<path fill="#CCCCCC" d="M121.618,114.42c-0.212,0-0.353-0.07-0.459-0.176s-0.142-0.282-0.142-0.494s0.071-0.389,0.177-0.494
					c0.106-0.105,0.247-0.176,0.459-0.176c0.142,0,0.247,0.035,0.353,0.07l-0.07,0.211c-0.105-0.035-0.212-0.07-0.282-0.07
					c-0.212,0-0.353,0.142-0.353,0.459c0,0.141,0.035,0.247,0.07,0.317c0.07,0.071,0.141,0.106,0.247,0.106
					c0.105,0,0.247-0.035,0.353-0.106v0.247c-0.035,0.035-0.105,0.035-0.141,0.07C121.76,114.42,121.688,114.42,121.618,114.42z"/>
				<path fill="#CCCCCC" d="M122.782,114.174c0.071,0,0.142,0,0.212-0.035v0.211c-0.035,0-0.07,0.035-0.105,0.035s-0.106,0-0.142,0
					c-0.247,0-0.388-0.141-0.388-0.423v-0.706h-0.177v-0.105l0.177-0.105l0.105-0.283h0.176v0.283h0.354v0.211h-0.354v0.706
					c0,0.07,0,0.105,0.035,0.142C122.676,114.174,122.712,114.174,122.782,114.174z"/>
				<path fill="#CCCCCC" d="M123.205,112.727c0-0.035,0-0.07,0.035-0.105c0.036-0.035,0.071-0.035,0.106-0.035s0.071,0,0.106,0.035
					s0.035,0.07,0.035,0.105s0,0.07-0.035,0.105c-0.035,0.036-0.071,0.036-0.106,0.036s-0.106,0-0.106-0.036
					C123.24,112.832,123.205,112.797,123.205,112.727z M123.488,114.385h-0.283v-1.305h0.283V114.385z"/>
				<path fill="#CCCCCC" d="M124.193,114.385l-0.494-1.305h0.283l0.281,0.74c0.035,0.142,0.07,0.247,0.07,0.318l0,0
					c0-0.071,0.036-0.177,0.071-0.318l0.247-0.74h0.282l-0.494,1.305H124.193z"/>
				<path fill="#CCCCCC" d="M125.746,114.42c-0.212,0-0.354-0.07-0.459-0.176s-0.176-0.282-0.176-0.494s0.07-0.389,0.176-0.494
					s0.247-0.176,0.424-0.176c0.176,0,0.317,0.035,0.424,0.141c0.105,0.105,0.141,0.247,0.141,0.424v0.141h-0.883
					c0,0.141,0.035,0.212,0.106,0.282c0.07,0.071,0.142,0.106,0.282,0.106c0.07,0,0.141,0,0.212-0.035
					c0.07,0,0.142-0.035,0.212-0.071v0.212c-0.07,0.035-0.142,0.07-0.212,0.07C125.922,114.42,125.852,114.42,125.746,114.42z
					 M125.711,113.291c-0.07,0-0.142,0.035-0.212,0.07c-0.071,0.071-0.071,0.142-0.106,0.248h0.601c0-0.106-0.036-0.177-0.071-0.248
					C125.852,113.291,125.781,113.291,125.711,113.291z"/>
			</g>
		</g>
		<g opacity="0.61">
			<g>
				<path fill="#CCCCCC" d="M120.418,92.969c0,0.141-0.07,0.282-0.176,0.354c-0.105,0.07-0.247,0.141-0.459,0.141
					c-0.211,0-0.353-0.035-0.494-0.105v-0.283c0.07,0.035,0.177,0.07,0.247,0.07c0.071,0.036,0.177,0.036,0.247,0.036
					c0.105,0,0.176-0.036,0.247-0.071c0.07-0.035,0.07-0.105,0.07-0.176s-0.035-0.105-0.07-0.177
					c-0.035-0.035-0.142-0.105-0.317-0.142c-0.141-0.07-0.282-0.141-0.318-0.211c-0.07-0.07-0.105-0.176-0.105-0.282
					c0-0.142,0.035-0.247,0.142-0.353c0.105-0.07,0.247-0.106,0.423-0.106c0.177,0,0.318,0.036,0.494,0.106l-0.105,0.211
					c-0.142-0.07-0.283-0.105-0.424-0.105c-0.105,0-0.176,0.035-0.211,0.07s-0.071,0.105-0.071,0.142c0,0.035,0,0.07,0.036,0.105
					c0.035,0.036,0.035,0.071,0.105,0.106c0.035,0.035,0.105,0.07,0.246,0.105c0.142,0.035,0.213,0.105,0.283,0.141
					s0.105,0.106,0.141,0.142C120.383,92.828,120.418,92.898,120.418,92.969z"/>
				<path fill="#CCCCCC" d="M121.194,93.251c0.071,0,0.142,0,0.212-0.035v0.212c-0.035,0-0.07,0.035-0.105,0.035s-0.106,0-0.142,0
					c-0.247,0-0.388-0.141-0.388-0.424v-0.705h-0.177v-0.105l0.177-0.106l0.105-0.282h0.176v0.282h0.354v0.212h-0.354v0.705
					c0,0.07,0,0.105,0.036,0.142C121.089,93.216,121.124,93.251,121.194,93.251z"/>
				<path fill="#CCCCCC" d="M122.465,93.428l-0.07-0.177l0,0c-0.07,0.071-0.142,0.142-0.177,0.177
					c-0.071,0.035-0.142,0.035-0.247,0.035c-0.141,0-0.211-0.035-0.282-0.105c-0.07-0.071-0.106-0.177-0.106-0.283
					c0-0.141,0.036-0.246,0.142-0.317c0.106-0.07,0.247-0.105,0.459-0.105h0.212V92.58c0-0.07-0.035-0.141-0.07-0.176
					c-0.036-0.035-0.106-0.07-0.178-0.07c-0.07,0-0.141,0-0.176,0.035c-0.07,0.035-0.105,0.035-0.176,0.07l-0.106-0.211
					c0.071-0.036,0.142-0.071,0.247-0.071c0.07-0.035,0.176-0.035,0.247-0.035c0.177,0,0.282,0.035,0.388,0.106
					c0.07,0.07,0.142,0.176,0.142,0.352v0.883h-0.247V93.428z M122.041,93.251c0.105,0,0.177-0.035,0.247-0.07
					c0.071-0.071,0.106-0.142,0.106-0.247v-0.105h-0.177c-0.142,0-0.212,0.035-0.282,0.07s-0.105,0.105-0.105,0.176
					s0,0.106,0.035,0.142C121.936,93.251,121.971,93.251,122.041,93.251z"/>
				<path fill="#CCCCCC" d="M124.193,93.428h-0.282v-0.813c0-0.105-0.035-0.176-0.07-0.211s-0.106-0.07-0.177-0.07
					c-0.105,0-0.211,0.035-0.246,0.105c-0.071,0.07-0.071,0.176-0.071,0.354v0.635h-0.282v-1.306h0.212l0.035,0.177l0,0
					c0.035-0.071,0.106-0.106,0.177-0.142s0.141-0.035,0.246-0.035c0.318,0,0.459,0.177,0.459,0.458V93.428z"/>
				<path fill="#CCCCCC" d="M125.005,93.463c-0.177,0-0.282-0.07-0.388-0.177c-0.105-0.105-0.142-0.282-0.142-0.493
					c0-0.213,0.036-0.389,0.142-0.494c0.105-0.106,0.211-0.177,0.388-0.177s0.317,0.07,0.388,0.177l0,0
					c0-0.106-0.035-0.177-0.035-0.212v-0.459h0.283v1.835h-0.213l-0.035-0.177l0,0C125.322,93.393,125.182,93.463,125.005,93.463z
					 M125.076,93.251c0.105,0,0.211-0.035,0.246-0.106c0.035-0.07,0.07-0.176,0.07-0.316v-0.035c0-0.178-0.035-0.283-0.07-0.354
					c-0.07-0.07-0.141-0.105-0.246-0.105c-0.106,0-0.177,0.035-0.213,0.105c-0.035,0.07-0.07,0.176-0.07,0.354
					c0,0.141,0.035,0.246,0.07,0.316C124.899,93.216,124.97,93.251,125.076,93.251z"/>
				<path fill="#CCCCCC" d="M126.734,92.122c0.176,0,0.281,0.07,0.388,0.177c0.106,0.105,0.142,0.281,0.142,0.494
					c0,0.211-0.035,0.388-0.142,0.493c-0.106,0.106-0.212,0.177-0.388,0.177c-0.177,0-0.283-0.07-0.389-0.177h-0.035l-0.035,0.142
					h-0.212v-1.835h0.282v0.423c0,0.035,0,0.071,0,0.142c0,0.071,0,0.106,0,0.106l0,0C126.451,92.192,126.558,92.122,126.734,92.122
					z M126.663,92.334c-0.105,0-0.177,0.035-0.247,0.105c-0.035,0.07-0.07,0.176-0.07,0.317v0.036c0,0.141,0.035,0.281,0.07,0.352
					c0.035,0.071,0.142,0.106,0.247,0.106c0.106,0,0.177-0.035,0.212-0.106c0.035-0.07,0.07-0.176,0.07-0.352
					C126.98,92.51,126.875,92.334,126.663,92.334z"/>
				<path fill="#CCCCCC" d="M127.369,92.157h0.317l0.282,0.741c0.035,0.105,0.07,0.211,0.07,0.282l0,0
					c0-0.036,0.035-0.106,0.035-0.142c0.035-0.07,0.106-0.353,0.283-0.882h0.281l-0.564,1.481c-0.105,0.283-0.281,0.389-0.494,0.389
					c-0.07,0-0.105,0-0.176-0.035V93.78c0.035,0,0.105,0,0.141,0c0.142,0,0.212-0.071,0.283-0.247l0.035-0.105L127.369,92.157z"/>
			</g>
		</g>
		<g opacity="0.61">
			<g>
				<path fill="#CCCCCC" d="M120.418,103.553c0,0.142-0.07,0.283-0.176,0.354s-0.247,0.141-0.459,0.141
					c-0.211,0-0.353-0.035-0.494-0.105v-0.282c0.07,0.035,0.177,0.071,0.247,0.071c0.071,0.035,0.177,0.035,0.247,0.035
					c0.105,0,0.176-0.035,0.247-0.071c0.07-0.035,0.07-0.105,0.07-0.177c0-0.07-0.035-0.105-0.07-0.176
					c-0.035-0.035-0.142-0.105-0.317-0.141c-0.141-0.071-0.282-0.142-0.318-0.213c-0.035-0.07-0.105-0.176-0.105-0.281
					c0-0.142,0.035-0.248,0.142-0.354c0.105-0.07,0.247-0.105,0.423-0.105c0.177,0,0.318,0.035,0.494,0.105l-0.105,0.212
					c-0.142-0.07-0.283-0.106-0.424-0.106c-0.105,0-0.176,0.036-0.211,0.071s-0.071,0.106-0.071,0.142s0,0.07,0.036,0.105
					c0.035,0.035,0.035,0.07,0.105,0.105c0.035,0.035,0.105,0.07,0.246,0.105c0.142,0.036,0.213,0.106,0.283,0.142
					c0.07,0.036,0.105,0.106,0.141,0.142C120.383,103.412,120.418,103.447,120.418,103.553z"/>
				<path fill="#CCCCCC" d="M121.194,103.801c0.071,0,0.142,0,0.212-0.035v0.211c-0.035,0-0.07,0.035-0.105,0.035s-0.106,0-0.142,0
					c-0.247,0-0.388-0.141-0.388-0.423v-0.706h-0.177v-0.105l0.177-0.105l0.105-0.283h0.176v0.283h0.354v0.211h-0.354v0.706
					c0,0.07,0,0.105,0.036,0.142C121.089,103.801,121.124,103.801,121.194,103.801z"/>
				<path fill="#CCCCCC" d="M122.465,104.012l-0.07-0.176l0,0c-0.07,0.07-0.142,0.141-0.177,0.176
					c-0.071,0.035-0.142,0.035-0.247,0.035c-0.141,0-0.211-0.035-0.282-0.105c-0.07-0.07-0.106-0.176-0.106-0.282
					c0-0.142,0.036-0.247,0.142-0.317c0.106-0.07,0.247-0.105,0.459-0.105h0.212v-0.07c0-0.071-0.035-0.142-0.07-0.178
					c-0.036-0.035-0.106-0.07-0.178-0.07c-0.07,0-0.141,0-0.176,0.035c-0.07,0.035-0.105,0.035-0.176,0.071l-0.106-0.212
					c0.071-0.035,0.142-0.07,0.247-0.07c0.07-0.035,0.176-0.035,0.247-0.035c0.177,0,0.282,0.035,0.388,0.105
					c0.07,0.07,0.142,0.176,0.142,0.354v0.881h-0.247V104.012z M122.041,103.836c0.105,0,0.177-0.035,0.247-0.07
					c0.071-0.071,0.106-0.142,0.106-0.248v-0.141h-0.177c-0.142,0-0.212,0.035-0.282,0.07s-0.105,0.105-0.105,0.177
					c0,0.07,0,0.106,0.035,0.142C121.936,103.801,121.971,103.836,122.041,103.836z"/>
				<path fill="#CCCCCC" d="M124.193,104.012h-0.282v-0.811c0-0.106-0.035-0.177-0.07-0.213c-0.035-0.035-0.106-0.07-0.177-0.07
					c-0.105,0-0.211,0.035-0.246,0.106c-0.071,0.07-0.071,0.177-0.071,0.353v0.635h-0.282v-1.305h0.212l0.035,0.176l0,0
					c0.035-0.07,0.106-0.105,0.177-0.141s0.141-0.035,0.246-0.035c0.318,0,0.459,0.176,0.459,0.458V104.012z"/>
				<path fill="#CCCCCC" d="M125.005,104.047c-0.177,0-0.282-0.07-0.388-0.176s-0.142-0.282-0.142-0.494
					c0-0.211,0.036-0.389,0.142-0.494s0.211-0.176,0.388-0.176s0.317,0.07,0.388,0.176l0,0c0-0.105-0.035-0.176-0.035-0.211v-0.459
					h0.283v1.834h-0.213l-0.035-0.176l0,0C125.322,103.977,125.182,104.047,125.005,104.047z M125.076,103.801
					c0.105,0,0.211-0.035,0.246-0.106c0.035-0.07,0.07-0.177,0.07-0.317l0,0c0-0.176-0.035-0.282-0.07-0.353
					c-0.07-0.071-0.141-0.106-0.246-0.106c-0.106,0-0.177,0.035-0.213,0.106c-0.035,0.07-0.07,0.177-0.07,0.353
					c0,0.141,0.035,0.247,0.07,0.317C124.899,103.766,124.97,103.801,125.076,103.801z"/>
				<path fill="#CCCCCC" d="M126.734,102.672c0.176,0,0.281,0.07,0.388,0.176s0.142,0.282,0.142,0.494
					c0,0.211-0.035,0.389-0.142,0.494s-0.212,0.176-0.388,0.176c-0.177,0-0.283-0.07-0.389-0.176h-0.035l-0.035,0.141h-0.212v-1.834
					h0.282v0.423c0,0.035,0,0.071,0,0.142s0,0.105,0,0.105l0,0C126.451,102.742,126.558,102.672,126.734,102.672z M126.663,102.918
					c-0.105,0-0.177,0.035-0.247,0.106c-0.035,0.07-0.07,0.177-0.07,0.317v0.035c0,0.141,0.035,0.282,0.07,0.354
					c0.035,0.07,0.142,0.105,0.247,0.105c0.106,0,0.177-0.035,0.212-0.105c0.035-0.071,0.07-0.178,0.07-0.354
					C126.98,103.06,126.875,102.918,126.663,102.918z"/>
				<path fill="#CCCCCC" d="M127.369,102.707h0.317l0.282,0.74c0.035,0.105,0.07,0.212,0.07,0.283l0,0
					c0-0.036,0.035-0.106,0.035-0.142c0.035-0.071,0.106-0.353,0.283-0.882h0.281l-0.564,1.481
					c-0.105,0.282-0.281,0.388-0.494,0.388c-0.07,0-0.105,0-0.176-0.035v-0.211c0.035,0,0.105,0,0.141,0
					c0.142,0,0.212-0.07,0.283-0.248l0.035-0.105L127.369,102.707z"/>
			</g>
		</g>
		<g>
			<g opacity="0.45">
				<g>
					<path fill="#F7AD41" d="M138.06,105.635h-20.075V96.25h20.075V105.635z M118.725,104.895h18.594v-7.868h-18.594V104.895z"/>
				</g>
				<g>
					<g>
						<g>
							<rect x="126.699" y="98.932" fill="#F7AD41" width="9.666" height="0.424"/>
						</g>
					</g>
				</g>
				<g>
					<g>
						<g>
							<rect x="126.699" y="97.979" fill="#F7AD41" width="9.666" height="0.424"/>
						</g>
					</g>
				</g>
			</g>
			<g opacity="0.45">
				<g>
					<path fill="#F7AD41" d="M138.06,95.368h-20.075v-9.385h20.075V95.368z M118.725,94.592h18.594v-7.868h-18.594V94.592z"/>
				</g>
				<g>
					<g>
						<g>
							<rect x="126.699" y="88.664" fill="#F7AD41" width="9.666" height="0.424"/>
						</g>
					</g>
				</g>
				<g>
					<g>
						<g>
							<rect x="126.699" y="87.676" fill="#F7AD41" width="9.666" height="0.423"/>
						</g>
					</g>
				</g>
			</g>
			<g>
				<g>
					<path fill="#F7AD41" d="M138.06,115.938h-20.075v-9.385h20.075V115.938z M118.725,115.197h18.594v-7.869h-18.594V115.197z"/>
				</g>
				<g>
					<g>
						<g>
							<rect x="126.699" y="109.234" fill="#F7AD41" width="9.666" height="0.423"/>
						</g>
					</g>
				</g>
				<g>
					<g>
						<g>
							<rect x="126.699" y="108.281" fill="#F7AD41" width="9.666" height="0.424"/>
						</g>
					</g>
				</g>
			</g>
		</g>
		<rect x="133.12" y="44.067" fill="#CCCCCC" width="0.353" height="39.834"/>
		<rect x="39.375" y="52.042" fill="#CCCCCC" width="0.353" height="32.212"/>
		<rect x="86.3" y="65.025" fill="#CCCCCC" width="0.353" height="18.664"/>
		<rect x="78.009" y="117.102" fill="#CCCCCC" width="0.353" height="7.269"/>
		<polygon fill="#CCCCCC" points="35.564,117.031 34.153,118.549 34.436,118.795 35.564,117.561 36.693,118.795 36.94,118.549 		"/>
		<rect x="124.547" y="116.714" fill="#CCCCCC" width="0.353" height="7.656"/>
		<rect x="126.628" y="116.714" fill="#CCCCCC" width="0.353" height="10.655"/>
		<rect x="86.3" y="50.03" fill="#CCCCCC" width="0.353" height="4.269"/>
		<g>
			<polygon fill="#CCCCCC" points="79.244,53.735 79.314,55.816 79.703,55.781 79.597,54.123 81.291,54.193 81.291,53.806 			"/>
			<polygon fill="#CCCCCC" points="82.772,57.263 82.667,55.217 82.313,55.217 82.384,56.875 80.726,56.805 80.69,57.192 			"/>
			
				<rect x="80.908" y="53.446" transform="matrix(-0.7071 0.7071 -0.7071 -0.7071 177.721 37.5472)" fill="#CCCCCC" width="0.353" height="4.269"/>
		</g>
		<g>
			<polygon fill="#CCCCCC" points="82.561,47.102 80.62,47.172 80.62,47.525 82.208,47.455 82.137,49.042 82.49,49.042 			"/>
			<polygon fill="#CCCCCC" points="79.244,50.454 81.185,50.348 81.185,49.995 79.597,50.065 79.667,48.513 79.314,48.478 			"/>
			
				<rect x="80.66" y="46.832" transform="matrix(-0.7071 -0.7071 0.7071 -0.7071 103.4586 140.5405)" fill="#CCCCCC" width="0.353" height="4.022"/>
		</g>
		<rect x="93.216" y="44.067" fill="#CCCCCC" width="39.833" height="0.353"/>
		<rect x="35.458" y="127.404" fill="#CCCCCC" width="91.557" height="0.353"/>
		<rect x="77.868" y="124.018" fill="#CCCCCC" width="47.031" height="0.353"/>
		<rect x="39.34" y="51.971" fill="#CCCCCC" width="30.202" height="0.353"/>
	</g>
</g>
</svg>
