<?xml version="1.0" encoding="utf-8"?><!DOCTYPE svg PUBLIC "-//W3C//DTD SVG 1.1//EN" "http://www.w3.org/Graphics/SVG/1.1/DTD/svg11.dtd"><svg version="1.1" xmlns="http://www.w3.org/2000/svg" xmlns:xlink="http://www.w3.org/1999/xlink" x="0px" y="0px" width="90px" height="59.7px" viewBox="0 0 90 59.7" enable-background="new 0 0 90 59.7" xml:space="preserve"><g id="Layer_1"></g><g id="icon"><g><g><g><path d="M9.2,46.2c-0.2,0.6-0.4,1.5-0.1,3c0.3,1.6,1.2,2.6,1.8,3.2c1.3,1.5,2.6,2.1,4.5,3.1c1.9,1,6.5,2.1,8.5,2.3c4.1,0.5,10.6,0,15.2-4c2.7-2.3-1.5-7.8-5.4-13.9c-1.2-1.8-2.1-3.7-3.3-5.5c-1.2-1.7-2.4-3.5-3.5-5.3c-1.3-2.1-1.7-4.2-2-5.8c-0.2-1.2-0.3-2-0.2-3.5c0.1-0.7,0.1-1.3,0.2-1.7c0.1-0.5,0.3-1.2,0.7-1.9c0.4-0.6,1.3-1.5,2.2-1.6c1.7-0.1,3.8,1,5.2,1.9l4-2.4c-0.7-0.6-1.3-0.9-1.9-1.5c-1.2-1-1.3-1.5-3-1.9c-1-0.2-2.5-0.4-4.2-0.3c-2.4,0.3-3.5,1.2-4,1.6c-0.3,0.2-1.5,1.4-1.9,2c-0.8,1.2-1.7,2.9-1.9,5.3c-0.2,2.6,0.3,5.3,0.6,6.5c0.6,2.1,1.9,4.9,3,6.6c1.1,1.7,1.4,2,2.7,3.9c0.3,0.5,1.2,1.7,1.5,2.2c0.3,0.5,0.6,1.1,0.9,1.6c0.7,1.4,0.9,1.9,1,2.9c0.1,0.4-0.1,1.3-0.3,1.5c-0.7,1-1.7,1.7-4.3,1.6c-1.7-0.1-0.5,0.1-2.4-0.1c0.8-0.5,0.7-0.3,2-1.2c2.4-1.6,1.9-5.2-0.5-6.8c-3-1.8-5.7-1.5-7.3-1.5c-0.3,0-0.9,0,0.1-0.5c1.6-0.9,1.9-1.9,2-2.6c0.2-2.9-3-4.3-7.2-4c-1.7,0.1-3,0.2-4.1,0.3c-0.1,0,0.2-0.1,0.7-0.6c0.5-0.5,0.8-1.1,0.7-1.8C9,26,7.5,25.8,6.8,25.8c-1.1,0-4.5,0.2-4.4,1.3c0.1,0.5,0.9,0.6,1.7,0.7c0.6,0,1.5,0.1,1.9,0C5.7,28,5.4,28,4.7,28.3c-0.8,0.4-1.1,0.5-1.8,0.8c-3.1,1.6-2.8,5.4,2.6,5.5c1.4,0,2.2-0.1,2,0c-1,0.5-1.6,1-1.9,1.4c-1.8,1.7-2.1,3.1-1.8,4.5C4,41.7,5.3,43.5,8.1,44c1.4,0.3,1.6,0.3,2.1,0.3C10.2,44.3,9.5,45.1,9.2,46.2z"/></g><path fill="#211F1F" d="M15.9,43.5c1.1-0.3,3-0.5,3.7,0.6c0.1,0.2,0.5,0,0.3-0.2c-0.8-1.2-2.9-1.1-4.1-0.8C15.6,43.2,15.7,43.6,15.9,43.5L15.9,43.5z"/><g><path fill="#F7AD41" d="M30.4,44.3c0,0.3-0.3,0.9-0.5,1.2c-0.3,0.4-1.1,1-1.5,1.1c-1.2,0.5-1.7,0.6-3.4,0.5c-1.6-0.1-2.8-0.2-4.7-0.6c1.5-0.6,2.7-1.2,3.9-2.1c1.5-1.1,1.9-3.8-0.4-5.3c-2.8-1.7-6.2-1.9-7.7-1.8c-1.4,0.1-2.2,0-2.2,0s2-1,2.7-1.4c1.1-0.8,1.6-1.3,1.6-2.5c0-1-1.2-3.6-6.5-3.2c-0.8,0.1-4.9,0.4-5.7,0.4c-0.4,0,0.2-0.4,0.9-0.9c0.6-0.5,1.7-1.2,1.7-2.1c-0.1-1.5-2.9-1.1-2.9-1.1S3.3,26.5,3,26.8c-0.3,0.3,1.5,0.2,2.1,0.3c0.5,0.1,1.8,0.1,1.7,0.5c-0.7,0.6-1.2,0.8-1.7,1.1c-0.5,0.3-0.9,0.4-1.7,0.8c-2.9,1.6-1.6,4.3,2.6,4.3c2.4,0,7.1-0.9,4.9,0c-1.4,0.6-2.8,0.9-4.4,2.3c-2.1,1.8-2,2.9-1.7,4c0.3,1.1,1.8,2.5,4.6,2.8c1.5,0.2,1.6,0.5,3.3,0.2c-0.4,0.2-0.7,0.4-1.1,0.7c-0.7,0.7-1.1,1.2-1.4,1.9c-0.4,0.9-0.4,2-0.2,2.9c0.3,0.9,0.7,1.8,1.2,2.4c1.1,1.4,2.7,2.4,4.5,3.3c1.8,0.9,5.2,1.8,7.1,1.9c3.8,0.3,7.7-0.7,10-3.2c2.3-2.6,3.6-7.2-0.1-13.1c-1.1-1.8-2-3.6-3.1-5.3c-1.1-1.7-2.3-3.4-3.3-5.1c-1.3-2-1.6-4.1-1.8-5.7c-0.2-1.1-0.3-2-0.2-3.4c0.1-0.7,0.1-1.2,0.2-1.7c0.1-0.5,0.3-1.2,0.6-1.8c0.4-0.6,1.3-1.5,2.1-1.6c1.6-0.1,3.6,0.9,4.9,1.8l3.7-2.3c-0.6-0.6-1.2-0.9-1.8-1.4c-1.1-1-1.3-1.3-3-1.7c-1-0.2-2.2-0.4-3.8-0.2c-2.3,0.3-3.1,1.4-3.6,1.8c-0.2,0.2-0.8,0.8-1.2,1.4c-0.7,1.1-1.7,3-1.9,5.3c-0.1,2,0.1,4.1,0.5,5.6c0.5,2,2,5.5,3.2,7.1c1.2,1.5,2.2,2.8,3.3,4.7c0.3,0.4,0.7,1.1,1,1.6c0.3,0.5,0.5,0.9,0.7,1.4C30.1,41.8,30.6,42.7,30.4,44.3z"/></g><g><path d="M24.2,23.4c0.2,1.3,0.5,2.7,0.9,3.6c2.5,4.8,4.6,7.5,6.7,11.1c2,3.3,3.5,6.7,2.7,10.5c-0.7,3-3.9,7.1-9.3,7.8L22,56.5c0.9,0.6,4.7,1,8.8,0.6c2.3-0.1,4.7-0.8,6.5-2c6.5-3.9,6.5-9.2,5.2-13.2c-0.8-2.3-2.8-5.3-4.6-7.1c-1.9-2-3.9-3.6-6.4-6.9c-1.6-2-1.4-3.6-1.8-6c0-0.3-0.1-0.5-0.1-0.7c1.8-3.9,1.4-5.8-1.7-6.2c-0.9-0.1-2.3,0.4-2.9,1.5c-0.4,0.6-0.5,1.2-0.8,2.3C24,20,24,22,24.2,23.4z"/></g><g><path fill="#FFFFFF" d="M24.7,23.5c0.2,1.3,0.6,2.8,1,3.7c1.9,4,4.2,7.2,6.5,11c1.9,3,3.5,6.3,2.9,10.3c-0.6,3.8-3.9,6.9-7,7.8c-1.2,0.4-2.1,0.4-2.1,0.4c2.2,0.2,4.1-0.1,5-0.2c2.2-0.3,4-0.9,5.7-2c5.6-3.8,6.3-8.2,4.8-12.6c-0.8-2.3-2-4.2-3.9-6.3c-1.8-2-3.5-4-6.1-6.8c-1.5-1.7-2-3.9-2.4-6.3c0-0.3-0.1-0.5-0.1-0.7c1.7-3.8,2.1-5.6-0.8-6c-0.9-0.2-2.1,0.1-2.6,1c-0.3,0.6-0.7,1.5-0.9,2.6C24.5,21,24.5,22,24.7,23.5z"/></g><g><path fill="#F7AD41" d="M30,14.6c0.1-0.1,0.5-0.4,0.7-0.7c0.1-0.3,1.2-1.9,1.7-2.2c-0.6-0.2-1.3-0.3-1.3-0.4c-1-0.2-1.5-0.3-3.1-0.1c-0.7,0.1-1.3,0.3-1.7,0.5c0.6,4,1,2.7,1.3,3.2c0.1,0,0.2,0.1,0.3,0.1c0.8,0.2,0.4-0.1,1.3,0.4C29.7,14.9,29.4,15.3,30,14.6z"/></g><path fill-rule="evenodd" clip-rule="evenodd" d="M24.5,46.9c-1.1-0.3-5.8,0.4-6.9,6.3C17.6,53.1,15.5,43.5,24.5,46.9z"/><path d="M11,43.3c-0.1,0.1,0,0.5,0,0.5s-0.1,0.5-0.2,1c1.1-1.5,3.9-2.9,5.5-3.4c1.9-0.5,2.7-0.4,2.7-0.6c0-0.2-1.7-0.1-1.9,0C15.2,41.2,13.8,41.5,11,43.3z"/><path d="M14.8,37.3c0.2,0,0.3-0.1,0.5-0.1c0,0,0,0,0.1,0c0.1,0,0.2,0,0.3,0c0.3,0,0.6,0,0.9,0c0.6,0,1.1,0,1.7,0c0-0.1,0-0.3-0.1-0.4c-3.3-0.2-3.4-0.1-5.3,0.1c-0.5,0.1-2.6,0.5-2.8,0.8c0.1,0.1,0.1,0.1,2.1-0.2C12.8,37.4,13.9,37.2,14.8,37.3z"/><path fill-rule="evenodd" clip-rule="evenodd" d="M29.4,45.5c-0.8,1.6-3.6,2.7-2.5,8.8C26.9,54.3,21,48.1,29.4,45.5z"/><path d="M23.7,14.4c0,1.1,0.3,1.9,0.3,2.5c-0.7-0.3-1.3-1.7-1.4-2.9c0,0,1.9-1.8,1.7-1.5C24.6,11.9,23.7,13.1,23.7,14.4z"/><path d="M11.7,45.8c1.3-1.5,4-2.7,7.3-1c-5.2-5.1-10.2,1-9.8,2.9c0.4,2.2,2.1,3.3,2.2,3.3C10.3,49.4,10.3,47.4,11.7,45.8z"/><path d="M28.9,38.7c1.5,1.2,2.6,0.8,3.2,0.9c-1,1.3-2.8,0.9-3,0.8c0,0-1.7-3.4-2.5-4.1C27.6,37.1,27.8,37.3,28.9,38.7z"/><path d="M24.9,32.8c1.6,0.7,2.6,0.2,3.1,0.3c-0.4,0.7-1.7,2.1-2.7,1.2c0,0-1.8-2.5-2.8-3.7C23.3,31.6,23.6,32.2,24.9,32.8z"/><path d="M21.5,26.4c1.3,1.1,2.6,0.7,3.2,0.8c-0.9,1.2-2.8,1.1-3,1c0,0-1-3.3-1.4-4.3C21,25.9,20.6,25,21.5,26.4z"/><path d="M21,19.8c0.5,1.5,1,1.7,1.6,2.3c-1.5,0.5-2.2-0.8-2.3-1c0,0,0.5-3.2,0.5-4.3C20.8,18.1,20.6,18.2,21,19.8z"/><path fill-rule="evenodd" clip-rule="evenodd" d="M14.6,41.4c0.4,0.2,1.3-0.2,1.6,0.1c2.8-0.7,4.8-0.4,6.7,1.3c0,0-0.5-2-2-2.5C20,39.9,18.6,39.5,14.6,41.4z"/><path fill-rule="evenodd" clip-rule="evenodd" d="M8.8,41.4c0.4-2,2.7-4.5,7.3-4.4C16.1,37,9,33.6,8.8,41.4z"/><path fill-rule="evenodd" clip-rule="evenodd" d="M30.2,42.4c0.7,0.8,0.5,3.6,3.8,5.6C34,48,28.2,48.7,30.2,42.4z"/><path fill-rule="evenodd" clip-rule="evenodd" d="M5.2,37.2c2.3-2.6,6.3-4,9.5-1.3C14.7,35.9,12.1,29.5,5.2,37.2z"/><path d="M28.6,12c-0.5,0.8-0.8,1.4-1.1,1.9c-0.3-0.5-0.1-1.8,0.5-2.7c0,0,2.2-0.3,1.9-0.2C30.4,10.9,29.2,11.2,28.6,12z"/><path d="M18.2,38.1c-1.8,0.6-2.8,2.3-3.6,3.4c-0.4-2,1.1-4.3,2.6-4.6c4-0.9,6.4,1.7,6.5,1.8C21.6,37.9,19.7,37.7,18.2,38.1z"/><path d="M34,30.9c-0.2,0.3-0.4,0.7-0.6,1c-0.4,0.5-1.2,0.8-1.8,1.1c-0.8,0.3-1.8,0.3-2.7,0.1c0,0.1,0,0.1,0,0.2c1,0.2,2,0.3,3.1,0c1.1-0.3,2-1.1,2.4-2C34.2,31.1,34.1,31,34,30.9z"/><path d="M42.1,41.3c-2.3,2.4-4.6,2.6-7.3,2.5c0,0.1,0,0.2,0,0.2c0.9,0.1,1.7,0.2,2.7,0.1c1.8-0.2,3.4-0.8,4.6-2.6C42.1,41.5,42.1,41.4,42.1,41.3z"/><path d="M42.7,47c-1.3,1.2-1.8,2.1-4.2,2.5c-1.7,0.3-3.1,0.1-4.1-0.1c0,0.1-0.1,0.3-0.2,0.4c1,0.4,2.4,0.7,3.9,0.5c2-0.3,3-0.6,4.6-2.6C42.9,47.5,42.8,46.9,42.7,47z"/><path d="M40.8,51.4c-0.6,1-2,2.2-4.1,2.8c-0.7,0.2-1.7,0.4-2.5,0.2c-0.8-0.2-1.4-0.4-2.1-0.7c-0.1-0.1-0.3-0.2-0.4-0.3c-0.1,0.1-0.1,0.2-0.2,0.2c0.3,0.2,0.5,0.4,0.8,0.6c0.6,0.4,1.3,0.5,2,0.6c1.2,0.2,2.8,0,4-0.7C40.7,52.7,40.9,51.3,40.8,51.4z"/><path d="M38.2,35.5c-1.3,2.1-3,2.4-6.3,2.5c0,0.1,0.1,0.1,0,0.2c0.8,0.1,1.5,0.2,2.4,0.1c1.4-0.1,3.4-0.7,4-2.6C38.3,35.5,38.2,35.4,38.2,35.5z"/><g><path d="M31.2,27.7c0,0-0.1,0.1-0.1,0.1c-0.4,0.3-0.7,0.6-1.1,0.8c-0.5,0.2-0.8,0.3-1.5,0.5c-1,0.2-1.7,0-2.2-0.2c-0.1,0,0.3,0.2,0.4,0.3c0.9,0.5,2.6,0.2,3.3-0.1c0.4-0.2,0.8-0.5,1.2-0.8c0.1-0.1,0.1-0.1,0.2-0.2C31.3,27.9,31.3,27.8,31.2,27.7z"/></g><g><path d="M29.7,24.5c0,0-0.1,0.1-0.1,0.1c-0.4,0.2-0.8,0.4-1.2,0.5c-0.5,0.1-0.9,0.1-1.5,0.1c-1-0.1-1.7-0.4-2.1-0.8c-0.1,0,0.2,0.3,0.3,0.4c0.7,0.7,2.5,0.8,3.3,0.7c0.4-0.1,0.9-0.2,1.3-0.5c0.1,0,0.1-0.1,0.2-0.1C29.7,24.7,29.7,24.6,29.7,24.5z"/></g><g><path d="M28.4,21.2c-0.2,0-0.3,0.1-0.5,0.1c-0.5,0-0.9,0-1.5-0.1c-1-0.2-1.6-0.6-2-1c-0.1,0,0.2,0.3,0.3,0.4c0.6,0.7,2.4,1,3.2,1c0.3,0,0.6-0.1,0.8-0.2C28.5,21.4,28.5,21.3,28.4,21.2z"/></g><g><path d="M27.7,18.2c-0.2-0.1-0.5-0.3-0.8-0.5c-0.8-0.6-1.1-1.3-1.3-1.8c-0.1-0.1,0,0.4,0,0.5c0.2,0.8,1.2,1.7,2,2.2C27.7,18.4,27.7,18.3,27.7,18.2z"/></g><g><path fill-rule="evenodd" clip-rule="evenodd" fill="#F7AD41" d="M40.8,12.3c-1.1-0.3-4.6-1.8-4.8-2.6c-0.5-1.4-0.8-1.5-1.4-1.7c-0.6-0.3-1.4,0.8-1.8,1c-8.5-3.9-11.3,3-11.3,3.6c-0.1,0.6-0.4,0.9-0.4,0.9c-5.1,5.1-1.6,6.7-1.6,6.7s0,0.3,0.4,0.4c0.1,0,0.2,0.1,0.3,0.1c0.3,0.1,0.6,0.3,0.8,0.4c0.3,0.1,0.6,0.3,0.9,0.4c1.2,0.6,2.5,0.7,3.8,1.1c1.7,0.6,3.3,1.3,5,1.7c0.1-0.1,0.2-0.2,0.3-0.2c1-0.2,3.7-0.9,4.2-1.5c1.2-1.4,1.4-2.5,3.9-2.6C42.5,20.1,45.4,13.6,40.8,12.3z"/><path d="M25.6,22.5c0.6,0.5,0.9,0.6,1.5,0.8c1.4,0.4,3,1,4.3,1c3-0.2,4.5-1.1,5.2-2.4l3.2-1.5c2,0.2,3.1-1,4-5.5c0.6-2.8-4.1-3.1-5.1-3.9c-1.1-0.8-2-1.2-2.5-2.2c-0.2-0.4-0.8-1.1-1.4-1.1c-0.9-0.1-1.4,0.2-1.9,0.6c-3.3-2.5-10-1-11.6,3.3C21,12.2,21,12.6,20.8,13c-0.3,0.6-1,0.9-1.4,1.4c-0.8,0.9-1.8,2.6-1.5,4.1c0.2,0.8,0.1,0.7,0.5,1.3c0.2,0.3,0.4,0.5,0.5,0.6c0.1,0.2,0.4,0.4,0.9,0.9c0.7,0.4,2.5,1.3,4.6,1.4c1.5,0.1,1,0.1,2.4,0.5c-0.5-0.5-1.4-1.1-1.8-1.4c-3.1-0.1-6-2.3-6.2-3.8c-0.2-1.9,1.4-3.4,2.7-4.7c0.2-0.2,0.2-0.3,0.3-0.4c0.4-1.5,1-2.9,2.2-3.6c2.7-1.7,6.5-1.5,8.5,0c0.5-0.8,1.4-1.4,2-1.3c0.3,0,0.3,0.2,0.5,0.5c0.6,0.7,0.7,1.5,1,1.6c1.8,1.2,4.4,2,6,3.1c1,0.6,0,4.4-0.8,5.2c-1,1-2.2,0.7-3.3,1.2c0,0-2.4,1.5-6,1.2c-1.4-0.1-3-0.3-4.1-0.7c-0.5-0.2-1.1-0.5-1.7-0.9c-0.1,0-0.2-0.1-0.4-0.1c1.7,1.1,4,1.7,6.3,2c0.5,0.1-0.2,0.5,0.6,0.7l1.7,0.1c0.6,0,0.9-0.1,0.9-0.1c-0.5,0.7-2.2,1.8-5,1.6c-1.8-0.1-4.9-1.5-6.7-3c0.5,0.4,0.6,0.8,1.2,1.4"/><path fill-rule="evenodd" clip-rule="evenodd" d="M35.9,20.9c0.5,0.4-1.1,1.2-1.1,1.2c-7.8,0.3-10.3-4.5-10.3-4.5C27.4,21.6,35.9,20.9,35.9,20.9z"/><path d="M34.5,20.9c-3.6,0.1-5.7-0.6-7.9-1.8c-1.4-0.8-2.6-1.9-2.7-3.4c0-0.3,0-0.4,0.3-0.7c-0.6,0.1-0.9,0.6-1.1,1.2c0.2-0.2,0.3-0.4,0.4-0.1c0.7,3.1,5.1,5.4,9.1,5.8L34.5,20.9z"/><path d="M25.8,22.6c0.6,0.4,0.8,0.6,1.4,0.8c1.3,0.5,2.5,1,4.6,1c2-0.1,2.8-0.6,3.7-1.4c-0.1-0.1-0.1-0.3-0.1-0.4c0-0.1,0-0.2,0-0.3c-0.7,0.6-2.4,1.4-4.8,1.2c-1.8-0.1-4.9-1.5-6.7-3C23.9,20.6,24.7,21.9,25.8,22.6z"/><g><path fill-rule="evenodd" clip-rule="evenodd" d="M41,16.1c0.6,0.2,1.4-0.8,0.9-1.4C41.2,14.1,40.4,15.5,41,16.1z"/><path fill-rule="evenodd" clip-rule="evenodd" fill="#945F28" d="M41.2,16.3c0.3,0.1,0.8-0.4,0.6-0.8C41.4,15.1,40.9,15.9,41.2,16.3z"/></g><g><path fill-rule="evenodd" clip-rule="evenodd" fill="#FFFFFF" d="M34.1,6.7c0.6-0.2,1.4-0.9,2.6,0.5c1.2,1.3,1,2.8-0.1,3.6c0,0-2.3-0.7-4.2-0.3C32.6,9.6,33.2,7.1,34.1,6.7z"/><path fill-rule="evenodd" clip-rule="evenodd" d="M34.6,6.1c1.4-0.3,3.5,1.1,2.9,3.3c0-1.7-1.9-3.1-2.9-2.6c-0.5,0.3-0.8,0.7-1.1,1.2c-0.2,0.3-0.7,1.4,0.1,1.6c0.2,0.1,0.7,0.2,0.8-0.3c0.2-0.5-0.2-0.9-0.3-0.9c0.7-0.5,1.9,0.7,1.1,1.9c0.3,0.2,2.4-0.2,3.7,1.3c-2.4-1.1-5.4-1.2-6.9-0.9c0.4-0.3,0.4-0.4,0.4-0.5C32,7.8,33.3,6.3,34.6,6.1z"/></g><path d="M38.1,20.3c-0.4,0.2-0.8,0.3-1.3,0.3c1.6,2.8,2.4,6,2.4,6l0.6-2.3l1.7,1.3C41.2,24.2,39.6,22,38.1,20.3z"/><g><path fill-rule="evenodd" clip-rule="evenodd" fill="#FFFFFF" d="M29.9,11c0.9-1.5,0.8-3.6-1.3-4.6c-2.1-1-2.9,0.2-3.6,0.8c-1.1,1-0.9,4.3-0.8,5.4C26.7,11.4,29.8,11.1,29.9,11C29.9,11.1,30,10.7,29.9,11z"/><path fill-rule="evenodd" clip-rule="evenodd" d="M23.1,13.2c1.3-0.8,4.5-1.7,7.6-2.2c0.6-0.1-0.7-0.2-0.7-0.2c-1.3,0-2,0.4-2.3,0.3c0.5-1.9-1.5-2.9-2.2-1.8c0-0.1,0.7,0.3,0.7,0.9c0,0.6-0.7,0.7-1,0.8c-1.1,0.2-0.8-1.5-0.7-1.9c0.2-0.8,0.5-1.5,1.1-2.2c1.2-1.2,4.1-0.5,4.8,1.6c-0.1-3.1-3.3-3.7-5.1-2.6c-1.6,1-2.7,3.6-1.3,6.4C23.5,13.1,24.2,12.4,23.1,13.2z"/></g><g><path fill-rule="evenodd" clip-rule="evenodd" d="M33.4,16.3c0.4-1.1,2-0.5,1.9,1c-0.6,0.4-1.2,0.3-1.7-0.1C33.7,17.3,33.2,16.7,33.4,16.3z"/><path fill-rule="evenodd" clip-rule="evenodd" fill="#945F28" d="M33.8,17.2c0.1-0.7,1.2-0.7,1.4,0.3c-0.3,0.4-0.7,0.4-1.1,0.3C34.2,17.7,33.7,17.5,33.8,17.2z"/></g></g><path fill="#F7AD41" d="M24.2,23.2l-3.4-1.3c0,0,0.5,0,1.2-0.1c0.9-0.1,1.9-1,1.9-1L24.2,23.2z"/><polygon points="25.3,22.2 24.1,22.8 23.9,20.6 25.3,21.7 "/><path fill-rule="evenodd" clip-rule="evenodd" d="M12.6,30c-0.4-0.2-2.9,0.1-4,2.8C8.6,32.9,6.2,28.5,12.6,30z"/><path d="M16.7,31.4c-1.2-0.5-2.4-0.3-4.3,1.3c0.9-4.6,5.8-2.3,6.3-0.9c0.5,1.4-0.3,2.5-0.3,2.6C18.6,33.1,18,31.9,16.7,31.4z"/></g><g><path d="M48.6,48c-0.3-0.1-0.5-0.3-0.6-0.4c-0.1-0.1-0.1-0.3-0.2-0.5c0.5-3.8,0.6-4.4,1.1-8c0.5-3.5,0.9-7,1.4-10.4c0.3-0.6,0.9-1.1,1.8-1.6c0.9-0.5,1.5-0.3,1.9,0.7c-0.4,3.4-0.8,6.8-1.2,10.3c-0.4,3.6-0.5,4.2-1,8c-0.4,0.8-0.8,1.3-1.3,1.6C50,47.9,49.3,48,48.6,48z"/><path d="M59.6,45.5c-1.3-0.6-5.6-4.4-6.5-5.3c-0.9-0.2-1.3-0.6-1.3-1.1c0-0.5,0.3-1,0.8-1.5c0.5-0.5,1-1,1.6-1.5c0.6-0.5,1-0.8,1.2-1c0.1-0.1,0.4-0.5,1-1.4c0.6-0.9,1.3-1.7,2.1-2.5c0.8-0.8,1.6-1.5,2.3-1.9c0.8-0.4,1.4-0.3,1.9,0.4c0.1,0.6,0,1.3-0.4,2.1c-0.4,0.8-1,1.5-1.6,2.3c-0.6,0.8-1.3,1.5-2,2.2c-0.7,0.7-1.3,1.3-1.7,1.7c0,0.1,0.3,0.6,0.9,1.4c0.6,0.8,1.1,1.7,1.7,2.7c0.5,1,0.9,1.8,1,2.6C60.7,45.2,60.4,45.5,59.6,45.5z"/><path d="M76.2,35.8c0.1-2.5-0.1-4.6-0.8-6.5c-0.9-1.2-1.9-1.9-3-2.1c-1.1-0.2-2.2-0.1-3.3,0.4C68,28,67,28.6,66,29.5c-1,0.9-1.8,1.8-2.3,2.7c-0.2,0.6-0.5,1.5-0.7,2.7c-0.2,1.3-0.4,2.6-0.5,3.9c-0.1,1.4-0.1,3.2-0.1,4.3c0.1,1.1,0.3,1.8,0.7,1.9c0.7,0,0.9,0,1.2-0.4c0.3-0.3,0.7-0.9,0.8-1.4c0.1-0.5,0.4-1.6,0.4-2.2c0-0.6,0-1.2,0-1.7c1.6,0.3,2.9,0.3,4-0.1c1.1-0.4,2.3-1.1,3.5-2.1c0,0,0.1,0.5,0.3,1.4c0.2,0.9,0.4,1,0.6,1.9c0.3,1,0.6,1.7,0.9,2.2c0.4,0.5,0.7,0.3,1.1-0.6C76,39.8,76.1,38.4,76.2,35.8z M74.3,33.2c-0.2,0.8-0.6,1.5-1.2,2.2c-0.6,0.6-1.3,1.1-2.2,1.5c-0.9,0.4-1.7,0.6-2.6,0.6c-1.7-0.5-2.5-1.3-2.4-2.6c0.1-1.2,0.6-2.4,1.5-3.4c0.9-1,2-1.7,3.3-2.1c1.3-0.4,2.4,0.1,3.3,1.3C74.4,31.6,74.5,32.4,74.3,33.2z"/><path d="M88.9,37.6c0.2-2.4,0.1-4.5-0.4-6.4c-0.8-1.2-1.7-1.9-2.8-2.1c-1-0.1-2.1,0.1-3,0.6c-1,0.5-1.9,1.2-2.7,2.1c-0.8,0.9-1.4,1.8-1.8,2.6c-0.2,0.5-0.3,1.3-0.4,2.4c-0.1,1.1-0.2,2.2-0.2,3.3c0,1.1,0,2.1,0.1,2.9c0.1,0.8,0.3,1.3,0.6,1.5c0.5,0,0.9-0.1,1.1-0.3c0.2-0.2,0.4-0.6,0.5-0.9c0.1-0.4,0.1-0.8,0.1-1.3c0-0.5-0.1-0.9-0.1-1.4c1.2,0.3,2.3,0.3,3.2,0c0.9-0.3,1.9-0.9,3-1.8c0,0-0.2,0.7-0.2,1.8c0,0.9,0,1.8,0.3,2.6c0.2,0.8,0.5,1.2,0.9,1.6c0.3,0.2,0.6,0.3,1-0.5C88.2,42.5,88.7,39.9,88.9,37.6z M87.3,35.1c-0.2,0.8-0.6,1.5-1.1,2.1c-0.5,0.6-1.2,1-1.9,1.4c-0.7,0.3-1.4,0.5-2.2,0.5c-1.4-0.4-2-1.2-2-2.3c0-1.1,0.4-2.2,1.1-3.2c0.7-1,1.7-1.7,2.9-2.2c1.2-0.4,2.2-0.1,3,1.2C87.4,33.5,87.5,34.3,87.3,35.1z"/></g><g><path fill="#231F20" d="M25.1,1.7c-1.2,0.5-2,1.4-2.5,2.3c-0.1,0.2-0.9,1.5-1.1,2.5c0.8-1.2,2-2.7,3.2-3.3c1.6-0.9,2.9-0.6,4.2,0c-0.3-0.8-1.2-1.4-1.6-1.6C26.4,1.3,25.6,1.5,25.1,1.7z"/><path fill="#231F20" d="M36.2,4.1c0.7,0.4,1,1.1,1.2,1.7c0,0.1,0.3,1,0.3,1.6c-0.3-0.8-0.8-1.9-1.4-2.4c-0.8-0.7-1.7-0.7-2.5-0.6C34.1,4,34.7,3.8,35,3.7C35.5,3.7,35.9,3.9,36.2,4.1z"/></g></g></g></svg>