<svg version="1.1" xmlns="http://www.w3.org/2000/svg" xmlns:xlink="http://www.w3.org/1999/xlink" preserveAspectRatio="xMidYMid meet" viewBox="558 241 118 164"><g data-item-type="text" data-item="Business" id="logo__item--business" class="logo__item">
                <g class="logo__item__inner" transform="translate(559.6171875 402.9964120482445) scale(1 1) rotate(0 0 0)">
                    <text data-part-id="logo__item--business" dy="0" dominant-baseline="auto" alignment-baseline="auto" font-family="Montserrat" font-size="32px" fill="#8BC542" letter-spacing="0" font-weight="bold" font-style="normal" data-font-family="Montserrat" data-font-weight="bold" data-font-style="normal" data-ttf-url="/builder_assets/fontsttf/font-montserrat-bold-normal.ttf" data-font-filename="montserrat-bold-normal">bambil </text>
                </g>
            </g><g data-item-type="image" data-item="Image" data-logo-item="" id="logo__item--logo_0" class="logo__item">
    <g class="logo__item__inner" transform="translate(549.0391186969584 239) scale(0.8614501831712083 0.8614501831712083) rotate(0 0 0)">

<g>
  <path fill="#8BC542" d="M126.2,79.4c-0.9-1.1-2.6-1.3-3.7-0.4h0l-5,4l-9.4-2.8l11.1-8c1.2-0.9,1.5-2.5,0.6-3.7   c-0.9-1.2-2.5-1.5-3.7-0.6L97,81.6L96.1,72l6-4.3c1.2-0.9,1.5-2.5,0.6-3.7c-0.9-1.2-2.5-1.5-3.7-0.6l-7.3,5.2   c-0.8,0.6-1.2,1.5-1.1,2.4L92,85.2l-2.3,1.6l-0.1-2.9c0-1.5-1.3-2.6-2.7-2.6c-1.5,0-2.6,1.3-2.6,2.7l0,0l0.2,6.4l-1.7,1.2l-1,0.7   c-0.1,0.1-0.2,0.1-0.2,0.2l-4.9,3.7l0.1-8.5c0.1-0.2,0.1-0.4,0.1-0.6l0.3-21.7l8.9-6.7c0,0-0.1,0-0.1-0.1l9.7-7l14.6,4.3   c0.2,0.1,0.5,0.1,0.7,0.1c0.6,0,1.2-0.2,1.7-0.6l6.1-4.9c1.1-0.9,1.3-2.6,0.4-3.7c-0.9-1.1-2.6-1.3-3.7-0.4h0l-5,4l-9.4-2.8l11.1-8   c1.2-0.9,1.5-2.5,0.6-3.7c-0.9-1.2-2.5-1.5-3.7-0.6L90.2,49.3l-0.9-9.6l6-4.3c1.2-0.9,1.5-2.5,0.6-3.7c-0.9-1.2-2.5-1.5-3.7-0.6   L85,36.3c-0.8,0.6-1.2,1.5-1.1,2.4l1.4,14.1l-7.9,5.7l0.1-7c0.1-0.2,0.1-0.5,0.1-0.7L78,29l12.2-9.2c0.2-0.1,0.4-0.3,0.5-0.5   c0.4-0.5,0.6-1.1,0.5-1.7L91,9.8c0-1.5-1.3-2.6-2.7-2.6c-1.5,0-2.6,1.3-2.6,2.7v0l0.2,6.4l-7.8,5.9l0.2-13.7c0-1.5-1.2-2.7-2.6-2.7   c-1.5,0-2.7,1.1-2.7,2.6L72.6,32l-8.2-4.9l0.1-7.4c0-1.5-1.2-2.7-2.6-2.7c-1.5,0-2.7,1.1-2.7,2.6l-0.1,9c0,1,0.5,1.8,1.3,2.3   l12.2,7.3l-0.1,6.2c-0.1,0.2-0.1,0.5-0.1,0.7l-0.4,23.4L63.7,63l0.1-6.9c0-0.6-0.2-1.2-0.6-1.7l0.4-6.3c0.1-1-0.4-1.9-1.2-2.4   l-7.5-5c-1.2-0.8-2.9-0.5-3.7,0.7c-0.8,1.2-0.5,2.9,0.7,3.7l6.2,4.1L57.6,59L38.1,46c-1.2-0.8-2.9-0.5-3.7,0.7   c-0.8,1.2-0.5,2.9,0.7,3.7L46.6,58l-9.3,3.1l-5.2-3.8h0c-1.2-0.9-2.8-0.6-3.7,0.6c-0.9,1.2-0.6,2.8,0.6,3.7l6.3,4.6   c0.5,0.4,1.1,0.6,1.7,0.5c0.2,0,0.5-0.1,0.7-0.1l14.5-4.9l6.4,4.2c0.2,0.6,0.6,1.1,1.1,1.4l10.1,6.1l0.5,0.3c0.1,0,0.1,0.1,0.2,0.1   l1.4,0.8l-0.1,7.2c-0.1,0.2-0.1,0.5-0.1,0.7l-0.3,22.9l-8.2-5.5l0.1-6.3c0-0.4-0.1-0.9-0.3-1.2l0.4-7c0.1-0.9-0.4-1.8-1.2-2.4   l-7.5-5c-1.2-0.8-2.9-0.5-3.7,0.7c-0.8,1.2-0.5,2.9,0.7,3.7l6.2,4.1l-0.6,9.6l-19.6-13c-1.2-0.8-2.9-0.5-3.7,0.7   c-0.8,1.2-0.5,2.9,0.7,3.7l11.4,7.6L37,98.3l-5.2-3.8h0c-1.2-0.9-2.8-0.6-3.7,0.6c-0.9,1.2-0.6,2.8,0.6,3.7l6.3,4.6   c0.5,0.4,1.1,0.6,1.7,0.5c0.2,0,0.5-0.1,0.7-0.1l14.5-4.9l5.9,3.9c0.1,0.8,0.5,1.6,1.3,2l12.2,7.3l-0.1,9.5H39   c-0.7,0-1.4,0.3-1.9,0.8c-0.5,0.5-0.8,1.2-0.8,1.9v17.1c0,0.7,0.3,1.4,0.8,1.9c0.5,0.5,1.2,0.8,1.9,0.8h9.8c1.5,0,2.7-1.2,2.7-2.7   c0-1.5-1.2-2.7-2.7-2.7l-7.2,0V127h30.7c0.4,0.2,0.8,0.4,1.3,0.4c0.9,0,1.7-0.4,2.1-1c0.2-0.3,0.3-0.6,0.4-0.9   c0.2-0.3,0.2-0.7,0.2-1.1c0-0.2,0-0.5-0.1-0.7l0.3-20.6l9.4-7.1l16.5-11.9l14.6,4.3c0.2,0.1,0.5,0.1,0.7,0.1c0.6,0,1.2-0.2,1.7-0.6   l6.1-4.9C126.9,82.2,127.1,80.5,126.2,79.4z" data-part-id="logo__item--logo_0__0"></path>
  <path fill="#8BC542" d="M103.1,122.6H80.7c-1.5,0-2.7,1.2-2.7,2.7c0,1.5,1.2,2.7,2.7,2.7h19.8v11.7H57.5c-1.5,0-2.7,1.2-2.7,2.7   c0,1.5,1.2,2.7,2.7,2.7h45.6c0.7,0,1.4-0.3,1.9-0.8c0.5-0.5,0.8-1.2,0.8-1.9v-17.1c0-0.7-0.3-1.4-0.8-1.9   C104.5,122.9,103.8,122.6,103.1,122.6z" data-part-id="logo__item--logo_0__1"></path>
</g>

    </g>
</g></svg>
