<svg version="1.1" xmlns="http://www.w3.org/2000/svg" xmlns:xlink="http://www.w3.org/1999/xlink" preserveAspectRatio="xMidYMid meet" viewBox="552 252 127 139"><g data-item-type="text" data-item="Business" id="logo__item--business" class="logo__item">
                <g class="logo__item__inner" transform="translate(561.25 389.24999552965176) scale(1 1) rotate(0 0 0)">
                    <text data-part-id="logo__item--business" dy="0" dominant-baseline="auto" alignment-baseline="auto" font-family="Montserrat" font-size="32px" fill="#0065A3" letter-spacing="0" font-weight="bold" font-style="normal" data-font-family="Montserrat" data-font-weight="bold" data-font-style="normal" data-ttf-url="/builder_assets/fontsttf/font-montserrat-bold-normal.ttf" data-font-filename="montserrat-bold-normal">Bambil</text>
                </g>
            </g><g data-item-type="image" data-item="Image" data-logo-item="" id="logo__item--logo_0" class="logo__item">
    <g class="logo__item__inner" transform="translate(551.4943184311971 239) scale(0.8522727088002138 0.8522727088002138) rotate(0 0 0)">
        
<g>
	<path fill="#0065A3" d="M99.9,50.9l0.2-2.5L80.5,36.4l0.2,3.4L99.9,50.9z M98.5,66.3l0.2-2.6l-18.4-8.3l0.1,3.4L98.5,66.3z    M97.4,77.8L81,73.9l0,3.2l16.1,3.2L97.4,77.8z M95.9,92.2l0.2-2.3l-14.4,0.5l0,2.8L95.9,92.2z M82.4,105.4l0.6,2.3l11.2-3.9   l-0.3-1.9L82.4,105.4z M143.7,61.8c-0.8,0-1.5,0.6-1.6,1.4h-36.7l0.1-2.2h10.7c0.2,0,15.4-0.4,19-13.1c0.8-0.1,1.4-0.8,1.4-1.7   c0-0.9-0.7-1.7-1.7-1.7c-0.9,0-1.7,0.7-1.7,1.7c0,0.7,0.4,1.3,1,1.5c-3.4,11.9-18,12.3-18.1,12.3h-10.7l0.1-1.6h8.1   c0.2,0,3.4-0.3,5.7-3.2c2-2.5,2.8-6.2,2.3-10.9c0.6-0.3,1-0.8,1-1.5c0-0.9-0.7-1.7-1.7-1.7c-0.9,0-1.7,0.8-1.7,1.7   c0,0.9,0.6,1.6,1.5,1.7c0.5,4.4-0.2,7.9-2.1,10.2c-2.1,2.6-5.1,2.9-5.1,2.9l-8,0l1-15.8L73.3,19.2l-1.2,1.1l-29.3,28l1.1,9.5h-7.6   c0,0-2.9-0.3-5-2.9c-1.9-2.3-2.6-5.8-2.1-10.2c0.8-0.1,1.5-0.8,1.5-1.7c0-0.9-0.7-1.7-1.7-1.7c-0.9,0-1.7,0.8-1.7,1.7   c0,0.7,0.4,1.3,1,1.5c-0.5,4.7,0.3,8.4,2.3,10.9c2.4,2.9,5.6,3.2,5.7,3.2l7.8,0l0.2,1.6H33.8c-0.1,0-14.6-0.4-18.1-12.3   c0.6-0.3,1-0.9,1-1.5c0-0.9-0.7-1.7-1.7-1.7c-0.9,0-1.7,0.7-1.7,1.7c0,0.8,0.6,1.5,1.4,1.7c3.6,12.7,18.8,13.1,19,13.1h10.5   l0.3,2.2H8c-0.1-0.8-0.8-1.4-1.6-1.4c-0.9,0-1.7,0.7-1.7,1.7s0.7,1.7,1.7,1.7c0.7,0,1.3-0.4,1.6-1.1h36.8l0.2,1.6H33.8   c-0.4,0-9.8-0.4-17.3,12.2c-0.2-0.1-0.4-0.1-0.6-0.1c-0.9,0-1.7,0.8-1.7,1.7c0,0.9,0.8,1.7,1.7,1.7c0.9,0,1.7-0.8,1.7-1.7   c0-0.4-0.1-0.8-0.4-1c7.2-12.2,16.5-11.9,16.6-11.9H45l0.1,1.1h-8.3c-0.1,0-2.9,0-4.7,2.2c-1.2,1.5-1.7,3.5-1.4,6.1   c-0.5,0.3-0.9,0.8-0.9,1.5c0,0.9,0.7,1.7,1.7,1.7c0.9,0,1.7-0.8,1.7-1.7c0-0.9-0.7-1.6-1.6-1.7c-0.2-2.3,0.2-4,1.2-5.3   c1.5-1.8,4-1.9,4-1.9h8.4l2.1,17.6c-0.3,0.2-0.6,0.4-0.9,0.6c-0.5,0.4-1,0.7-1.4,1.1c-0.5,0.4-0.9,0.8-1.4,1.2l-11.4,1.1   c-0.2,0.2-0.4,0.5-0.6,0.7c-0.2,0.2-0.4,0.5-0.6,0.7c-0.2,0.2-0.4,0.5-0.6,0.7c-0.2,0.2-0.4,0.5-0.5,0.8c-0.2,0.3-0.3,0.5-0.5,0.8   c-0.2,0.3-0.3,0.5-0.5,0.8c-0.2,0.3-0.3,0.5-0.4,0.8c-0.1,0.3-0.3,0.5-0.4,0.8l9.4,3.5c-0.1,0.5-0.1,1.1-0.1,1.6c0,0.5,0,1.1,0,1.6   c0,0.5,0.1,1.1,0.2,1.6c0.1,0.5,0.2,1.1,0.4,1.6l-10,7.3c0.3,0.6,0.6,1.3,1,1.9c0.4,0.6,0.8,1.3,1.2,1.9c0.4,0.6,0.9,1.3,1.4,1.9   c0.5,0.6,1.1,1.2,1.7,1.8l14.6-2.9c0.7,0.5,1.4,0.9,2.2,1.3c0.8,0.4,1.5,0.8,2.4,1.2c0.8,0.4,1.7,0.8,2.5,1.1   c0.9,0.4,1.8,0.7,2.7,1l1.7,11.6c0.6,0.1,1.2,0.3,1.8,0.4c0.6,0.1,1.2,0.2,1.8,0.3c0.6,0.1,1.2,0.2,1.8,0.3   c0.6,0.1,1.2,0.2,1.9,0.3c0.6,0.1,1.2,0.1,1.9,0.2c0.6,0.1,1.2,0.1,1.9,0.2c0.6,0,1.2,0.1,1.9,0.1c0.6,0,1.2,0.1,1.9,0.1l7-10.7   c1-0.1,2.1-0.2,3.1-0.3c1-0.1,2-0.3,3-0.5c1-0.2,2-0.4,2.9-0.6c1-0.2,1.9-0.5,2.8-0.8l13.6,6.4c0.9-0.5,1.8-0.9,2.7-1.4   c0.9-0.5,1.7-1,2.5-1.5c0.8-0.5,1.6-1.1,2.3-1.6c0.7-0.5,1.4-1.1,2.1-1.7l-6.9-9.7c0.5-0.5,0.9-1,1.3-1.5c0.4-0.5,0.7-1,1.1-1.6   c0.3-0.5,0.6-1.1,0.9-1.6c0.2-0.5,0.5-1.1,0.6-1.6l11.9-1.5c0-0.3,0-0.6,0-0.9c0-0.3,0-0.6-0.1-0.9c0-0.3-0.1-0.6-0.1-0.9   c0-0.3-0.1-0.6-0.2-0.9c-0.1-0.3-0.1-0.6-0.2-0.9c-0.1-0.3-0.2-0.6-0.2-0.9c-0.1-0.3-0.2-0.6-0.3-0.9c-0.1-0.3-0.2-0.6-0.3-0.8   l-11.6-3.4c-0.3-0.5-0.5-1-0.8-1.4c-0.3-0.5-0.6-0.9-1-1.4c-0.3-0.4-0.7-0.9-1.1-1.3c-0.4-0.4-0.8-0.8-1.2-1.2l4.3-4.8   c-0.6-0.4-1.1-0.7-1.7-1.1c-0.6-0.4-1.2-0.7-1.8-1c-0.6-0.3-1.2-0.7-1.8-1c-0.6-0.3-1.2-0.6-1.9-0.9l-0.8,0.1l0.8-12.8h8.1   c0,0,2.5,0,4,1.9c1,1.2,1.4,3,1.2,5.3c-0.9,0-1.6,0.8-1.6,1.7c0,0.9,0.7,1.7,1.7,1.7c0.9,0,1.7-0.8,1.7-1.7c0-0.6-0.4-1.2-0.9-1.5   c0.3-2.6-0.2-4.6-1.4-6.1c-1.8-2.2-4.6-2.2-4.7-2.2H105l0.1-1.1h11.1c0.1,0,9.4-0.3,16.6,11.9c-0.2,0.3-0.4,0.6-0.4,1   c0,0.9,0.7,1.7,1.7,1.7c0.9,0,1.7-0.8,1.7-1.7c0-0.9-0.7-1.7-1.7-1.7c-0.2,0-0.4,0-0.6,0.1c-7.5-12.6-16.9-12.2-17.3-12.2h-11   l0.1-1.6h36.9c0.2,0.6,0.8,1.1,1.6,1.1c0.9,0,1.7-0.7,1.7-1.7S144.6,61.8,143.7,61.8z M56.1,106.2c-1.3-1.3-2.3-2.8-2.8-4.3   c-0.8-6.2-6.1-50.3-6.3-52.1c0.2-0.2,0.9-0.9,2.1-2l7.4,58.7C56.3,106.4,56.2,106.3,56.1,106.2z M57.5,107.4L49.8,47   c0.9-0.9,2.1-2,3.3-3.2l5.9,64.7C58.5,108.2,58,107.8,57.5,107.4z M62.7,110.5c-1-0.4-1.8-0.9-2.7-1.4l-6-66c1-0.9,2-1.9,3.1-3   l6.8,70.8C63.5,110.8,63,110.7,62.7,110.5z M64.8,111.3l-6.9-72c1.6-1.6,3.3-3.2,4.9-4.7l5.1,77.5   C66.9,111.9,65.8,111.7,64.8,111.3z M68.8,112.4l-5.1-78.5c1.8-1.8,3.6-3.4,5.1-4.9l2.1,83.8C70.2,112.6,69.5,112.5,68.8,112.4z    M72.1,112.9c-0.1,0-0.2,0-0.3,0l-2.1-84.7h0c0.7-0.7,1.3-1.2,1.9-1.8l2.5,86.7C73.4,113,72.8,113,72.1,112.9z M98.6,99.8   c0,0.4-0.1,0.8-0.1,1.3l-0.1,0.6l-0.1,0c-0.3,1.3-0.9,2.5-1.8,3.6c-1.3,1.7-3.2,3.3-5.6,4.5c-2.4,1.3-5.3,2.2-8.5,2.8   c-1.4,0.2-2.8,0.4-4.3,0.5l-0.3-11.8l21.2-4.6L98.6,99.8C98.6,99.8,98.6,99.8,98.6,99.8z M99.8,87.8l-0.8,8l-21.3,4.7l-0.5-17.3   c4,0.4,15.8,1.8,22.7,2.5C99.8,86.5,99.8,87.2,99.8,87.8z M99.9,85c-3.2-0.4-18.3-2.1-22.8-2.6l-0.5-17.3l24,8.2   C100.4,77.3,100.2,81.3,99.9,85z M100.7,72.5l-24.1-8.3l-0.5-18.2c4.8,2.6,20.1,10.6,25.5,13.5C101.3,63.6,101,68.1,100.7,72.5z    M101.6,58.7L76.1,45.2l-0.6-19.7c6.3,4.3,25.6,17.4,27.1,18.4C102.5,44.6,102.1,50.7,101.6,58.7z" data-part-id="logo__item--logo_0__0"></path>
</g>

    </g>
</g></svg>