<svg xmlns="http://www.w3.org/2000/svg" viewBox="0 0 2814.6 1003.8"><path d="M632 452.8v-67.7c0-1.5-1.2-2.6-2.6-2.6h-67.7c-1.5 0-2.6 1.2-2.6 2.6v67.7c0 1.5 1.2 2.6 2.6 2.6h67.7c1.4.1 2.6-1.1 2.6-2.6z" fill="#444"/><path d="M632 269.8v-67.7c0-1.5-1.2-2.6-2.6-2.6h-67.7c-1.5 0-2.6 1.2-2.6 2.6v67.7c0 1.5 1.2 2.6 2.6 2.6h67.7c1.4 0 2.6-1.1 2.6-2.6z" fill="#faae42"/><path d="M632 545.2v-67.7c0-1.5-1.2-2.6-2.6-2.6h-67.7c-1.5 0-2.6 1.2-2.6 2.6v67.7c0 1.5 1.2 2.6 2.6 2.6h67.7c1.4 0 2.6-1.2 2.6-2.6zm-369.4-92.4v-67.7c0-1.5-1.2-2.6-2.6-2.6h-67.7c-1.5 0-2.6 1.2-2.6 2.6v67.7c0 1.5 1.2 2.6 2.6 2.6H260c1.4.1 2.6-1.1 2.6-2.6zm0 92.4v-67.7c0-1.5-1.2-2.6-2.6-2.6h-67.7c-1.5 0-2.6 1.2-2.6 2.6v67.7c0 1.5 1.2 2.6 2.6 2.6H260c1.4 0 2.6-1.2 2.6-2.6z" fill="#444"/><path d="M262.6 269.8v-67.7c0-1.5-1.2-2.6-2.6-2.6h-67.7c-1.5 0-2.6 1.2-2.6 2.6v67.7c0 1.5 1.2 2.6 2.6 2.6H260c1.4 0 2.6-1.1 2.6-2.6z" opacity=".6" fill="#444"/><path d="M262.6 362.2v-67.7c0-1.5-1.2-2.6-2.6-2.6h-67.7c-1.5 0-2.6 1.2-2.6 2.6v67.7c0 1.5 1.2 2.6 2.6 2.6H260c1.4 0 2.6-1.2 2.6-2.6zM632 638.6v-67.7c0-1.5-1.2-2.6-2.6-2.6h-67.7c-1.5 0-2.6 1.2-2.6 2.6v67.7c0 1.5 1.2 2.6 2.6 2.6h67.7c1.4 0 2.6-1.2 2.6-2.6zm-92.3 0v-67.7c0-1.5-1.2-2.6-2.6-2.6h-67.7c-1.5 0-2.6 1.2-2.6 2.6v67.7c0 1.5 1.2 2.6 2.6 2.6H537c1.5 0 2.7-1.2 2.7-2.6zm-92.4 0v-67.7c0-1.5-1.2-2.6-2.6-2.6H377c-1.5 0-2.6 1.2-2.6 2.6v67.7c0 1.5 1.2 2.6 2.6 2.6h67.7c1.4 0 2.6-1.2 2.6-2.6zm-184.7 0v-67.7c0-1.5-1.2-2.6-2.6-2.6h-67.7c-1.5 0-2.6 1.2-2.6 2.6v67.7c0 1.5 1.2 2.6 2.6 2.6H260c1.4 0 2.6-1.2 2.6-2.6zm92.3 0v-67.7c0-1.5-1.2-2.6-2.6-2.6h-67.7c-1.5 0-2.6 1.2-2.6 2.6v67.7c0 1.5 1.2 2.6 2.6 2.6h67.7c1.5 0 2.6-1.2 2.6-2.6z" fill="#444"/><path d="M447.3 269.8v-67.7c0-1.5-1.2-2.6-2.6-2.6H377c-1.5 0-2.6 1.2-2.6 2.6v67.7c0 1.5 1.2 2.6 2.6 2.6h67.7c1.4 0 2.6-1.1 2.6-2.6z" opacity=".2" fill="#444"/><path d="M354.9 269.8v-67.7c0-1.5-1.2-2.6-2.6-2.6h-67.7c-1.5 0-2.6 1.2-2.6 2.6v67.7c0 1.5 1.2 2.6 2.6 2.6h67.7c1.5 0 2.6-1.1 2.6-2.6z" opacity=".4" fill="#444"/><path d="M2264.9 622.3V420.1c0-1.5-1.2-2.6-2.6-2.6h-217c-1.5 0-2.6 1.2-2.6 2.6v202.2c0 1.5 1.2 2.6 2.6 2.6h217c1.4 0 2.6-1.1 2.6-2.6z" fill="none"/><path d="M862.7 484.1l101.7-101.7h92.4L927.4 511.8l129.4 129.4h-92.4L862.7 539.5h-73.9v101.7h-73.9V382.4h73.9v101.7h73.9zm221.8-101l268-.7c43.1 0 64.7 18.5 64.7 55.5v203.3h-268c-43.1 0-64.7-18.5-64.7-55.5v-64.9c0-36.8 21.6-55.3 64.7-55.3h194.3l-.2-18.5c0-6.2-3-9.2-9.1-9.2h-249.7v-54.7zm83 137.7c-6 0-9.1 3.2-9.1 9.6v46c0 6.2 3.1 9.2 9.2 9.2h175.8l-.2-64.7-175.7-.1zm286.7-137.7l268-.7c43.1 0 64.7 18.5 64.7 55.5v203.3h-268c-43.1 0-64.7-18.5-64.7-55.5v-64.9c0-36.8 21.6-55.3 64.7-55.3h194.3l-.2-18.5c0-6.2-3-9.2-9.1-9.2h-249.7v-54.7zm83 137.7c-6 0-9.1 3.2-9.1 9.6v46c0 6.2 3.1 9.2 9.2 9.2h175.8l-.1-64.6-175.8-.2z" fill="#faae42"/><path d="M1943.8 382.4v258.8h-73.9V382.4h73.9zm101.7 258.8c-43.1 0-64.7-18.5-64.7-55.5V437.8c0-37 21.6-55.5 64.7-55.5H2249c43.1 0 64.7 18.5 64.8 54.3l-.2 147.9c-.1 38.1-21.6 56.6-64.6 56.6h-203.5zm18.3-203.2c-6 0-9.1 3.1-9.1 9.2v129.2c0 6.2 3 9.2 9.1 9.2l166.7-.2c6.2 0 9.2-3.1 9.2-9.2V447.1c0-6.2-3.1-9.2-9.2-9.2l-166.7.1zm582.5-55.8v55.6h-110.7v203.3h-74.1l-.2-203.3-110.7.2v-56.2l295.7.4z" fill="#444"/></svg>